<svg version="1.1" id="Layer_1" xmlns="http://www.w3.org/2000/svg" xmlns:xlink="http://www.w3.org/1999/xlink" x="0px" y="0px"
	 width="100%" viewBox="0 0 500 500" enable-background="new 0 0 500 500" xml:space="preserve">
<path fill="#FFFFFF" opacity="1.000000" stroke="none" 
	d="
M280.000000,501.000000 
	C186.666687,501.000000 93.833374,501.000000 1.000050,501.000000 
	C1.000033,334.333405 1.000033,167.666794 1.000017,1.000139 
	C167.666565,1.000093 334.333130,1.000093 500.999756,1.000046 
	C500.999847,167.666519 500.999847,334.333038 500.999939,500.999786 
	C427.500000,501.000000 354.000000,501.000000 280.000000,501.000000 
M150.404602,191.896729 
	C147.952423,191.456665 145.507294,190.971985 143.047012,190.583176 
	C102.126823,184.116348 61.574787,216.584702 58.704231,258.041046 
	C57.402538,276.839905 61.847523,293.996063 73.060532,309.249207 
	C83.284149,323.156433 90.566437,338.484467 92.410583,355.647583 
	C93.846825,369.014374 93.642792,382.579315 93.733124,396.059113 
	C93.775177,402.334412 95.564888,407.689575 100.290726,411.543823 
	C103.962456,414.538361 108.124748,417.263519 112.509026,418.992828 
	C128.532074,425.312897 144.389648,423.872681 159.975357,417.663208 
	C160.195145,424.102814 163.115356,428.766296 169.121201,431.282318 
	C173.098923,432.948669 177.027954,434.911316 181.176270,435.960510 
	C204.576263,441.878662 228.113632,447.309509 252.290100,448.737671 
	C277.841309,450.247040 302.947205,447.400574 326.583405,437.096893 
	C340.070068,431.217682 352.346283,423.924652 350.484863,405.372162 
	C350.013367,400.672668 354.144196,395.268341 356.798218,390.546478 
	C363.300415,378.978058 363.158478,375.275299 355.343109,364.502625 
	C354.334045,363.111725 353.795471,360.481964 354.440338,359.062988 
	C354.990295,357.852875 357.539764,357.007111 359.233795,356.955475 
	C366.559906,356.732147 373.900696,356.989044 381.226471,356.760468 
	C382.871216,356.709137 384.476898,355.406677 386.100555,354.680206 
	C384.513794,353.933899 382.947235,352.598572 381.336731,352.543274 
	C374.390869,352.304688 367.432129,352.441223 360.478058,352.441223 
	C360.357025,351.899109 360.235992,351.356995 360.114929,350.814880 
	C361.729645,350.272003 363.330200,349.316803 364.961578,349.260986 
	C370.621277,349.067200 376.295135,349.292999 381.955505,349.109344 
	C383.349457,349.064087 384.712677,348.072144 386.090027,347.515381 
	C384.742798,346.724915 383.420990,345.307922 382.043884,345.251984 
	C375.921173,345.003143 369.782562,345.144043 363.649719,345.144043 
	C363.502777,344.621246 363.355865,344.098480 363.208923,343.575684 
	C364.332886,343.055939 365.444305,342.121613 366.582886,342.087250 
	C371.911072,341.926331 377.253967,342.160583 382.574310,341.900055 
	C383.782928,341.840881 384.922699,340.374268 386.094147,339.555481 
	C384.886505,338.977325 383.693451,337.938660 382.468658,337.899811 
	C376.808014,337.720245 371.132050,337.968628 365.476288,337.723633 
	C363.840607,337.652771 362.253937,336.451355 360.644775,335.768219 
	C360.826508,335.240692 361.008240,334.713135 361.189972,334.185608 
	C368.634247,334.185608 376.083649,334.023468 383.520599,334.256927 
	C387.014740,334.366638 388.126251,333.134460 388.239044,329.727875 
	C388.480896,322.424011 390.838409,315.862091 395.183411,309.803680 
	C398.047058,305.810791 400.373505,301.245087 402.033905,296.610992 
	C407.592834,281.096283 401.523285,264.787079 387.508789,256.460449 
	C373.282043,248.007706 355.911102,250.441788 344.638794,262.429718 
	C343.800812,263.320923 342.737000,263.999878 341.646484,264.884308 
	C338.503326,257.285767 335.547333,250.139786 333.281891,244.663132 
	C336.498230,241.539581 339.186859,239.638641 340.888611,237.081039 
	C342.676849,234.393509 344.517303,233.620010 347.525635,234.285507 
	C354.140869,235.748947 357.519836,234.425888 359.535431,228.048157 
	C361.717194,221.144730 363.511475,213.915054 364.005951,206.726624 
	C364.903351,193.680801 359.737610,181.985321 353.693420,170.758118 
	C347.091919,158.495697 340.590240,146.161591 333.418701,134.235367 
	C331.382843,130.849777 327.046783,128.901871 323.977631,126.065231 
	C321.684906,123.946220 318.861328,121.776390 317.866302,119.048439 
	C316.800018,116.125320 317.461060,112.516258 317.608032,109.217239 
	C318.015076,100.082268 319.104187,90.939941 318.892914,81.824409 
	C318.608734,69.561745 312.164490,62.813034 300.007141,61.340080 
	C294.377960,60.658062 290.405334,57.942963 287.210876,53.625713 
	C285.330475,51.084385 283.624725,48.412506 281.714722,45.894718 
	C278.700226,41.921028 274.711914,39.912651 269.636108,40.128841 
	C266.982086,40.241882 264.312378,40.269154 261.661407,40.123013 
	C247.544601,39.344769 235.557999,43.500137 226.025925,54.425133 
	C220.872894,60.331207 214.187820,63.832016 206.211029,65.031235 
	C198.913498,66.128349 196.019882,70.024147 195.994965,77.422943 
	C195.988785,79.253761 196.095428,81.085526 196.171875,82.915947 
	C196.588150,92.883553 197.184769,102.847694 197.367386,112.819473 
	C197.478363,118.880508 195.827240,123.988892 189.724686,127.348755 
	C186.621246,129.057404 184.274643,132.679230 182.378265,135.902390 
	C180.119705,139.741180 179.202225,144.395309 176.809708,148.122284 
	C173.828232,152.766724 170.017502,156.896713 166.406387,161.113144 
	C163.716827,164.253540 159.726562,166.721695 158.170303,170.296661 
	C155.166992,177.195755 153.474762,184.665588 150.404602,191.896729 
M368.544525,363.012451 
	C370.928436,363.012451 373.312378,363.012451 376.366852,363.012451 
	C374.026794,358.109192 370.459900,360.261597 367.763794,359.952576 
	C366.566223,359.815308 365.206757,361.090210 363.920776,361.724091 
	C365.153168,362.153503 366.385529,362.582947 368.544525,363.012451 
z"/>
<path fill="#0850B0" opacity="1.000000" stroke="none" 
	d="
M151.238983,191.898804 
	C153.474762,184.665588 155.166992,177.195755 158.170303,170.296661 
	C159.726562,166.721695 163.716827,164.253540 166.406387,161.113144 
	C170.017502,156.896713 173.828232,152.766724 176.809708,148.122284 
	C179.202225,144.395309 180.119705,139.741180 182.378265,135.902390 
	C184.274643,132.679230 186.621246,129.057404 189.724686,127.348755 
	C195.827240,123.988892 197.478363,118.880508 197.367386,112.819473 
	C197.184769,102.847694 196.588150,92.883553 196.171875,82.915947 
	C196.095428,81.085526 195.988785,79.253761 195.994965,77.422943 
	C196.019882,70.024147 198.913498,66.128349 206.211029,65.031235 
	C214.187820,63.832016 220.872894,60.331207 226.025925,54.425133 
	C235.557999,43.500137 247.544601,39.344769 261.661407,40.123013 
	C264.312378,40.269154 266.982086,40.241882 269.636108,40.128841 
	C274.711914,39.912651 278.700226,41.921028 281.714722,45.894718 
	C283.624725,48.412506 285.330475,51.084385 287.210876,53.625713 
	C290.405334,57.942963 294.377960,60.658062 300.007141,61.340080 
	C312.164490,62.813034 318.608734,69.561745 318.892914,81.824409 
	C319.104187,90.939941 318.015076,100.082268 317.608032,109.217239 
	C317.461060,112.516258 316.800018,116.125320 317.866302,119.048439 
	C318.861328,121.776390 321.684906,123.946220 323.977631,126.065231 
	C327.046783,128.901871 331.382843,130.849777 333.418701,134.235367 
	C340.590240,146.161591 347.091919,158.495697 353.693420,170.758118 
	C359.737610,181.985321 364.903351,193.680801 364.005951,206.726624 
	C363.511475,213.915054 361.717194,221.144730 359.535431,228.048157 
	C357.519836,234.425888 354.140869,235.748947 347.525635,234.285507 
	C344.517303,233.620010 342.676849,234.393509 340.888611,237.081039 
	C339.186859,239.638641 336.498230,241.539581 333.281891,244.663132 
	C335.547333,250.139786 338.503326,257.285767 341.646484,264.884308 
	C342.737000,263.999878 343.800812,263.320923 344.638794,262.429718 
	C355.911102,250.441788 373.282043,248.007706 387.508789,256.460449 
	C401.523285,264.787079 407.592834,281.096283 402.033905,296.610992 
	C400.373505,301.245087 398.047058,305.810791 395.183411,309.803680 
	C390.838409,315.862091 388.480896,322.424011 388.239044,329.727875 
	C388.126251,333.134460 387.014740,334.366638 383.520599,334.256927 
	C376.083649,334.023468 368.634247,334.185608 361.189972,334.185608 
	C361.008240,334.713135 360.826508,335.240692 360.644775,335.768219 
	C362.253937,336.451355 363.840607,337.652771 365.476288,337.723633 
	C371.132050,337.968628 376.808014,337.720245 382.468658,337.899811 
	C383.693451,337.938660 384.886505,338.977325 386.094147,339.555481 
	C384.922699,340.374268 383.782928,341.840881 382.574310,341.900055 
	C377.253967,342.160583 371.911072,341.926331 366.582886,342.087250 
	C365.444305,342.121613 364.332886,343.055939 363.208923,343.575684 
	C363.355865,344.098480 363.502777,344.621246 363.649719,345.144043 
	C369.782562,345.144043 375.921173,345.003143 382.043884,345.251984 
	C383.420990,345.307922 384.742798,346.724915 386.090027,347.515381 
	C384.712677,348.072144 383.349457,349.064087 381.955505,349.109344 
	C376.295135,349.292999 370.621277,349.067200 364.961578,349.260986 
	C363.330200,349.316803 361.729645,350.272003 360.114929,350.814880 
	C360.235992,351.356995 360.357025,351.899109 360.478058,352.441223 
	C367.432129,352.441223 374.390869,352.304688 381.336731,352.543274 
	C382.947235,352.598572 384.513794,353.933899 386.100555,354.680237 
	C384.476898,355.406677 382.871216,356.709137 381.226471,356.760468 
	C373.900696,356.989044 366.559906,356.732147 359.233795,356.955475 
	C357.539764,357.007111 354.990295,357.852875 354.440338,359.062988 
	C353.795471,360.481964 354.334045,363.111725 355.343109,364.502625 
	C363.158478,375.275299 363.300415,378.978058 356.798218,390.546478 
	C354.144196,395.268341 350.013367,400.672668 350.484863,405.372162 
	C352.346283,423.924652 340.070068,431.217682 326.583405,437.096893 
	C302.947205,447.400574 277.841309,450.247040 252.290100,448.737671 
	C228.113632,447.309509 204.576263,441.878662 181.176270,435.960510 
	C177.027954,434.911316 173.098923,432.948669 169.121201,431.282318 
	C163.115356,428.766296 160.195145,424.102814 160.137146,416.985535 
	C162.826431,414.424561 165.353912,412.541260 167.948700,411.077942 
	C166.269150,418.140869 167.587387,421.517426 173.675812,424.498352 
	C176.784348,426.020325 180.127838,427.274567 183.504791,427.997406 
	C194.715210,430.397156 206.044891,432.252808 217.226196,434.772552 
	C237.094162,439.249908 256.878540,443.038544 277.493073,440.101532 
	C297.117188,437.305664 316.121216,433.244446 332.836823,421.834045 
	C337.070740,418.943848 340.136963,415.351501 340.305023,410.145721 
	C340.372742,408.048309 339.719513,405.025818 338.284912,404.041840 
	C336.919495,403.105255 333.981415,403.908325 331.959595,404.601959 
	C328.233704,405.880157 324.776398,407.969818 321.026642,409.145508 
	C285.082764,420.415253 247.805725,424.221863 210.634277,428.540039 
	C208.169617,428.826355 205.545731,427.742218 202.995911,427.295532 
	C203.020782,426.803131 203.045670,426.310760 203.070541,425.818359 
	C205.073563,425.174316 207.033722,424.288666 209.086380,423.924286 
	C226.111053,420.902588 243.112793,417.717407 260.198822,415.083466 
	C286.039612,411.100006 311.620483,406.372009 336.127472,396.725433 
	C350.452637,391.086700 355.496948,371.353912 342.509644,362.173615 
	C342.179352,361.940216 342.030945,361.449463 341.834198,361.136688 
	C354.316864,345.782104 353.960022,337.231354 340.387512,323.504181 
	C341.011444,322.955505 341.661987,322.435974 342.252838,321.855652 
	C347.816864,316.390656 347.333923,315.558685 343.751740,308.924194 
	C340.092957,302.147766 335.905853,294.810577 335.263062,287.430328 
	C333.978302,272.679138 328.350555,259.865295 322.014435,247.003937 
	C319.866455,242.643829 316.820648,240.965256 312.133301,241.130203 
	C306.344299,241.333923 300.541870,241.237915 294.746643,241.163910 
	C284.420807,241.032043 284.150146,241.369186 286.854126,251.397110 
	C288.279541,256.683380 289.933990,261.934998 290.911926,267.306610 
	C291.750122,271.910553 289.121826,274.455261 284.571075,275.102509 
	C280.310059,275.708527 276.061157,276.399658 271.800934,277.011536 
	C249.573074,280.204010 227.343338,283.383240 205.080078,286.183350 
	C205.531296,283.880432 206.016678,281.961121 206.957611,280.038452 
	C220.805511,278.405762 234.197845,276.776459 247.590195,275.147186 
	C236.413742,272.129974 225.351562,269.397980 213.663803,274.420715 
	C217.435013,262.365906 229.321259,255.378937 229.534943,241.974991 
	C220.755585,241.974991 212.655258,241.974991 204.361969,241.698639 
	C203.656845,239.659637 203.144714,237.896988 203.131073,236.061646 
	C209.443542,235.891434 215.257538,235.793900 221.528076,235.751740 
	C225.955490,235.807114 229.926361,235.807114 233.812973,235.807114 
	C235.416534,229.197617 236.036774,228.184464 240.108566,228.043304 
	C249.748779,227.709091 259.407837,227.350052 269.037445,227.665894 
	C271.532654,227.747742 275.380981,229.767410 276.105713,231.792435 
	C277.695160,236.233566 280.296753,236.663055 284.103180,236.261734 
	C286.573242,236.001312 289.087677,236.138596 291.582214,236.136932 
	C304.207886,236.128586 316.833557,236.133072 329.431488,236.133072 
	C331.526367,229.483459 333.102539,228.280533 340.122681,228.020477 
	C342.286346,227.940323 344.513184,228.259430 346.599121,227.839584 
	C348.019440,227.553711 349.957153,226.591537 350.431580,225.429031 
	C352.244690,220.986252 353.985443,216.427872 354.951416,211.747192 
	C356.161774,205.882187 354.475830,204.168808 348.454254,204.196487 
	C335.130066,204.257721 321.806091,204.556671 308.482574,204.525482 
	C275.494843,204.448273 242.507416,204.240723 209.519867,204.084167 
	C198.875748,204.033646 188.231644,203.978729 177.276794,203.862610 
	C174.707779,202.297272 172.449478,200.795151 170.632553,199.203613 
	C178.223663,198.892944 185.373810,198.469421 192.523087,198.483963 
	C232.470642,198.565201 272.417969,198.764099 312.365448,198.896606 
	C325.307251,198.939529 338.249329,198.903336 352.384308,198.903336 
	C350.985474,193.741272 350.411407,189.029938 348.451599,184.990967 
	C345.417847,178.738724 341.238739,173.053528 337.919556,166.925156 
	C335.014099,161.560745 331.774658,156.149338 330.188538,150.347061 
	C327.152161,139.239868 320.642853,132.383865 309.474304,129.858948 
	C307.936493,129.511307 306.406036,129.131012 304.517761,128.681458 
	C305.150818,127.531212 305.445374,126.753952 305.940186,126.137444 
	C308.560699,122.872566 312.930298,119.835434 306.639679,115.830460 
	C306.007660,115.428085 306.360474,113.360611 306.382507,112.068047 
	C306.543854,102.599174 307.166931,93.113785 306.791473,83.667503 
	C306.462769,75.396889 297.642914,69.894997 289.572998,72.035950 
	C287.514435,72.582100 285.337097,72.834312 283.202576,72.916603 
	C262.425018,73.717522 241.646210,74.491959 220.863968,75.155190 
	C218.507645,75.230377 216.031281,74.890495 213.778458,74.197380 
	C208.338593,72.523735 203.727676,76.228195 203.970413,81.813919 
	C204.381775,91.279465 204.514297,100.764030 204.478607,110.239525 
	C204.457123,115.946503 201.725281,122.143333 209.417282,126.229172 
	C207.219727,127.493057 206.058899,128.630478 204.750015,128.839081 
	C194.387314,130.490677 188.509323,136.768158 185.430832,146.480423 
	C184.392883,149.755051 182.351181,152.730515 180.635483,155.767715 
	C175.565536,164.742752 170.362381,173.643082 165.350143,182.649872 
	C163.182053,186.545868 160.980148,190.553253 162.300735,195.269745 
	C158.366119,194.113113 154.802551,193.005966 151.238983,191.898804 
M343.005035,272.964294 
	C342.523560,276.533844 342.042053,280.103424 341.701324,282.629608 
	C347.295349,286.926331 353.273407,290.392548 357.764069,295.237457 
	C364.117004,302.091461 362.801605,309.562317 355.596222,315.518463 
	C354.719208,316.243408 353.686646,317.632141 353.811951,318.567871 
	C354.313934,322.316437 355.243896,326.007751 355.996643,329.629211 
	C365.449921,329.629211 374.664490,329.629211 383.834320,329.629211 
	C384.823334,319.244019 386.549469,315.296387 392.216003,306.739990 
	C394.841553,302.775452 397.120178,298.377930 398.543518,293.857849 
	C403.142792,279.251740 395.385529,263.590515 381.203796,257.956421 
	C366.327820,252.046494 350.137909,258.067047 343.005035,272.964294 
M283.583679,265.898651 
	C282.049347,261.203583 280.376648,256.548065 279.020020,251.802216 
	C277.689331,247.146866 276.751740,242.389877 271.744446,239.990021 
	C271.031036,239.648102 270.238129,238.571960 270.225250,237.822845 
	C270.166840,234.422379 268.027588,233.610016 265.281433,233.584869 
	C258.823212,233.525742 252.359116,233.433548 245.909760,233.679260 
	C244.711884,233.724899 242.965530,235.045990 242.505920,236.192719 
	C239.983643,242.486069 237.729736,248.889771 235.496353,255.294876 
	C234.491669,258.176208 233.748581,261.148743 232.823898,264.293793 
	C250.763763,267.944244 267.901428,271.550995 286.290527,269.647522 
	C285.299530,268.290314 284.656281,267.409393 283.583679,265.898651 
M253.501419,57.145359 
	C249.018219,57.041672 244.533981,56.969711 240.052124,56.824352 
	C236.406754,56.706127 234.130371,58.169018 233.435959,62.266815 
	C250.019989,62.266815 266.289429,62.266815 283.657471,62.266815 
	C274.036987,55.638672 264.148468,57.081036 253.501419,57.145359 
M346.886963,306.433563 
	C347.346680,307.035706 347.806396,307.637848 348.461182,308.495544 
	C350.058777,299.670685 347.065613,293.302704 338.878601,289.877106 
	C341.726624,295.888824 344.092285,300.882385 346.886963,306.433563 
z"/>
<path fill="#0B0D0F" opacity="1.000000" stroke="none" 
	d="
M206.502045,280.041840 
	C206.016678,281.961121 205.531296,283.880432 204.879822,286.448669 
	C202.938446,291.198090 201.507278,295.493896 199.314011,299.357025 
	C195.149536,306.692108 190.548737,313.779449 185.941467,321.270264 
	C184.481659,324.464539 183.209579,327.358276 181.700211,330.504700 
	C179.265640,338.469452 177.068344,346.181519 174.636566,354.222473 
	C173.988464,359.320679 173.574860,364.090027 173.096115,369.332825 
	C173.063339,376.542145 173.095688,383.278015 173.071442,390.468231 
	C172.392746,396.344543 171.770660,401.766510 171.096085,407.161438 
	C171.043579,407.134430 171.161194,407.123779 170.831879,407.121521 
	C170.304855,407.502045 170.107147,407.884796 169.725555,408.491333 
	C168.988235,409.362732 168.434814,410.010345 167.881409,410.657990 
	C165.353912,412.541260 162.826431,414.424561 160.099899,416.570496 
	C144.389648,423.872681 128.532074,425.312897 112.509026,418.992828 
	C108.124748,417.263519 103.962456,414.538361 100.290726,411.543823 
	C95.564888,407.689575 93.775177,402.334412 93.733124,396.059113 
	C93.642792,382.579315 93.846825,369.014374 92.410583,355.647583 
	C90.566437,338.484467 83.284149,323.156433 73.060532,309.249207 
	C61.847523,293.996063 57.402538,276.839905 58.704231,258.041046 
	C61.574787,216.584702 102.126823,184.116348 143.047012,190.583176 
	C145.507294,190.971985 147.952423,191.456665 150.821793,191.897766 
	C154.802551,193.005966 158.366119,194.113113 162.535400,195.512924 
	C165.491135,196.968063 167.841171,198.130554 170.191193,199.293030 
	C172.449478,200.795151 174.707779,202.297272 177.493927,204.149689 
	C184.988144,212.367538 191.954483,220.235092 198.969070,228.404633 
	C199.790344,230.215683 200.563354,231.724762 201.398056,233.637177 
	C201.850693,234.738449 202.241638,235.436386 202.632584,236.134323 
	C203.144714,237.896988 203.656845,239.659637 204.435867,242.101562 
	C208.493927,255.047058 208.829956,267.480133 206.502045,280.041840 
M64.046059,250.749451 
	C60.441074,271.469696 64.582230,290.408081 77.036507,307.456970 
	C86.188194,319.984955 92.683510,333.766510 95.677292,349.008881 
	C96.448151,352.933624 97.863327,354.101074 101.805817,354.054535 
	C119.628677,353.844025 137.455414,353.962616 155.280762,353.962616 
	C160.084595,353.962616 164.888412,353.962585 169.858231,353.962585 
	C173.194183,336.299774 179.857101,320.500061 190.131561,306.221893 
	C200.345535,292.027802 204.631042,276.174316 203.176788,258.711731 
	C199.182663,210.750961 151.650742,183.177612 109.689705,198.216522 
	C85.363075,206.935196 70.485649,224.872482 64.046059,250.749451 
M153.499313,396.432098 
	C159.071136,396.432098 164.642960,396.432098 170.005066,396.432098 
	C170.005066,382.556213 170.005066,369.527557 170.005066,356.519958 
	C145.217499,356.519958 120.858330,356.519958 96.410797,356.519958 
	C96.410797,369.905182 96.410797,382.964661 96.410797,396.432281 
	C115.293945,396.432281 133.896591,396.432281 153.499313,396.432098 
M126.858437,418.101715 
	C128.682693,418.209747 130.507034,418.412018 132.331207,418.410461 
	C143.537506,418.400940 154.228394,416.571869 162.972168,408.824066 
	C165.755981,406.357300 168.422379,403.572296 167.789734,399.267059 
	C144.505310,399.267059 121.514160,399.267059 96.772232,399.267059 
	C99.852364,403.397278 101.737267,406.931946 104.531143,409.463409 
	C110.516602,414.886719 118.098000,416.936768 126.858437,418.101715 
z"/>
<path fill="#074FAE" opacity="1.000000" stroke="none" 
	d="
M368.081238,363.012390 
	C366.385529,362.582947 365.153168,362.153503 363.920776,361.724121 
	C365.206757,361.090210 366.566223,359.815308 367.763794,359.952576 
	C370.459900,360.261597 374.026794,358.109192 376.366852,363.012451 
	C373.312378,363.012451 370.928436,363.012451 368.081238,363.012390 
z"/>
<path fill="#FCFDFE" opacity="1.000000" stroke="none" 
	d="
M186.129181,320.969696 
	C190.548737,313.779449 195.149536,306.692108 199.314011,299.357025 
	C201.507278,295.493896 202.938446,291.198090 204.914001,286.832336 
	C227.343338,283.383240 249.573074,280.204010 271.800934,277.011536 
	C276.061157,276.399658 280.310059,275.708527 284.571075,275.102509 
	C289.121826,274.455261 291.750122,271.910553 290.911926,267.306610 
	C289.933990,261.934998 288.279541,256.683380 286.854126,251.397110 
	C284.150146,241.369186 284.420807,241.032043 294.746643,241.163910 
	C300.541870,241.237915 306.344299,241.333923 312.133301,241.130203 
	C316.820648,240.965256 319.866455,242.643829 322.014435,247.003937 
	C328.350555,259.865295 333.978302,272.679138 335.263062,287.430328 
	C335.905853,294.810577 340.092957,302.147766 343.751740,308.924194 
	C347.333923,315.558685 347.816864,316.390656 342.252838,321.855652 
	C341.661987,322.435974 341.011444,322.955505 340.387512,323.504181 
	C353.960022,337.231354 354.316864,345.782104 341.834198,361.136688 
	C342.030945,361.449463 342.179352,361.940216 342.509644,362.173615 
	C355.496948,371.353912 350.452637,391.086700 336.127472,396.725433 
	C311.620483,406.372009 286.039612,411.100006 260.198822,415.083466 
	C243.112793,417.717407 226.111053,420.902588 209.086380,423.924286 
	C207.033722,424.288666 205.073563,425.174316 203.070541,425.818359 
	C203.045670,426.310760 203.020782,426.803131 202.995911,427.295532 
	C205.545731,427.742218 208.169617,428.826355 210.634277,428.540039 
	C247.805725,424.221863 285.082764,420.415253 321.026642,409.145508 
	C324.776398,407.969818 328.233704,405.880157 331.959595,404.601959 
	C333.981415,403.908325 336.919495,403.105255 338.284912,404.041840 
	C339.719513,405.025818 340.372742,408.048309 340.305023,410.145721 
	C340.136963,415.351501 337.070740,418.943848 332.836823,421.834045 
	C316.121216,433.244446 297.117188,437.305664 277.493073,440.101532 
	C256.878540,443.038544 237.094162,439.249908 217.226196,434.772552 
	C206.044891,432.252808 194.715210,430.397156 183.504791,427.997406 
	C180.127838,427.274567 176.784348,426.020325 173.675812,424.498352 
	C167.587387,421.517426 166.269150,418.140869 167.948700,411.077942 
	C168.434814,410.010345 168.988235,409.362732 170.039948,408.399658 
	C170.745895,407.764038 170.953537,407.443909 171.161194,407.123779 
	C171.161194,407.123779 171.043579,407.134430 171.469101,407.213745 
	C177.983154,405.147003 183.918991,402.158569 190.190445,401.021729 
	C205.569031,398.234100 221.141602,396.536224 236.564972,393.971954 
	C264.945831,389.253357 294.747223,389.730225 319.475403,371.316406 
	C322.542938,369.032166 326.942749,368.605377 330.576141,366.983948 
	C332.405579,366.167572 333.900482,364.601593 335.546661,363.374542 
	C335.266968,362.956238 334.987274,362.537903 334.707611,362.119568 
	C333.963135,362.318848 333.226166,362.553772 332.473083,362.712189 
	C317.672974,365.825531 302.946899,369.371094 288.051910,371.934723 
	C264.613251,375.968750 241.054138,379.299622 217.564575,383.044617 
	C214.628876,383.512634 211.805893,384.687653 208.930679,385.535095 
	C209.052307,386.085785 209.173935,386.636475 209.295578,387.187195 
	C226.797348,388.247101 243.907043,382.446777 261.465210,383.695068 
	C240.859634,387.410706 220.142883,390.108215 199.458069,393.031952 
	C190.361969,394.317627 181.564911,393.994202 173.128052,390.013885 
	C173.095688,383.278015 173.063339,376.542145 173.439545,369.224121 
	C195.878693,364.416656 217.839325,359.771729 239.959442,356.083191 
	C262.436005,352.335236 285.068268,349.506622 306.788574,342.210358 
	C309.474426,341.308105 312.011780,339.963715 314.617950,338.824188 
	C314.495575,338.522736 314.373169,338.221283 314.250793,337.919830 
	C309.347107,338.355835 304.443451,338.791870 299.539764,339.227875 
	C299.448334,338.587830 299.356903,337.947815 299.265472,337.307770 
	C302.870331,336.546417 306.480225,335.808197 310.078888,335.018585 
	C316.240082,333.666687 322.495148,332.617981 328.519318,330.805603 
	C333.304352,329.366028 334.484924,327.353821 334.822235,322.924927 
	C307.174988,333.958588 277.925323,336.276428 249.004837,340.445251 
	C233.387619,342.696381 217.930420,346.078705 202.431656,349.107483 
	C200.115219,349.560150 197.967270,350.874969 195.741364,351.790924 
	C195.937317,352.368073 196.133270,352.945190 196.329224,353.522308 
	C216.430786,352.923492 235.771912,345.295898 256.052704,346.224854 
	C237.840485,350.069214 219.633652,353.927399 201.251999,356.568787 
	C192.526520,357.822632 183.308777,358.202423 174.871048,353.893555 
	C177.068344,346.181519 179.265640,338.469452 182.101669,330.451660 
	C205.450516,322.558289 229.171173,320.437012 252.654755,316.845795 
	C270.999847,314.040405 289.145081,309.907471 307.343719,306.190918 
	C309.671722,305.715485 311.785858,304.192688 313.999054,303.155121 
	C313.824768,302.592316 313.650482,302.029510 313.476227,301.466736 
	C308.339691,301.949585 303.203156,302.432404 298.066620,302.915253 
	C297.976349,302.377899 297.886047,301.840546 297.795776,301.303192 
	C304.190094,299.870575 310.543457,298.204193 316.990906,297.075012 
	C322.740753,296.068054 327.383453,292.396301 328.413574,286.740967 
	C326.641052,287.222382 325.093353,287.604675 323.568451,288.062988 
	C313.733765,291.018799 304.083313,295.072205 294.036255,296.738098 
	C271.585968,300.460632 248.877701,302.610504 226.397003,306.173737 
	C214.858719,308.002563 203.583527,311.491180 192.189438,314.229675 
	C192.245087,315.070282 192.300720,315.910858 192.356369,316.751434 
	C194.549240,317.063110 196.742126,317.374756 198.941742,317.970734 
	C198.959778,318.444305 198.971039,318.633575 198.586029,318.930481 
	C194.169556,319.682007 190.149368,320.325836 186.129181,320.969696 
z"/>
<path fill="#FDFDFE" opacity="1.000000" stroke="none" 
	d="
M170.632553,199.203613 
	C167.841171,198.130554 165.491135,196.968063 162.906448,195.562408 
	C160.980148,190.553253 163.182053,186.545868 165.350143,182.649872 
	C170.362381,173.643082 175.565536,164.742752 180.635483,155.767715 
	C182.351181,152.730515 184.392883,149.755051 185.430832,146.480423 
	C188.509323,136.768158 194.387314,130.490677 204.750015,128.839081 
	C206.058899,128.630478 207.219727,127.493057 209.417282,126.229172 
	C201.725281,122.143333 204.457123,115.946503 204.478607,110.239525 
	C204.514297,100.764030 204.381775,91.279465 203.970413,81.813919 
	C203.727676,76.228195 208.338593,72.523735 213.778458,74.197380 
	C216.031281,74.890495 218.507645,75.230377 220.863968,75.155190 
	C241.646210,74.491959 262.425018,73.717522 283.202576,72.916603 
	C285.337097,72.834312 287.514435,72.582100 289.572998,72.035950 
	C297.642914,69.894997 306.462769,75.396889 306.791473,83.667503 
	C307.166931,93.113785 306.543854,102.599174 306.382507,112.068047 
	C306.360474,113.360611 306.007660,115.428085 306.639679,115.830460 
	C312.930298,119.835434 308.560699,122.872566 305.940186,126.137444 
	C305.445374,126.753952 305.150818,127.531212 304.517761,128.681458 
	C306.406036,129.131012 307.936493,129.511307 309.474304,129.858948 
	C320.642853,132.383865 327.152161,139.239868 330.188538,150.347061 
	C331.774658,156.149338 335.014099,161.560745 337.919556,166.925156 
	C341.238739,173.053528 345.417847,178.738724 348.451599,184.990967 
	C350.411407,189.029938 350.985474,193.741272 352.384308,198.903336 
	C338.249329,198.903336 325.307251,198.939529 312.365448,198.896606 
	C272.417969,198.764099 232.470642,198.565201 192.523087,198.483963 
	C185.373810,198.469421 178.223663,198.892944 170.632553,199.203613 
M221.621414,122.995033 
	C221.948578,123.058868 222.275726,123.122704 222.602905,123.186531 
	C222.555023,123.406586 222.570068,123.773758 222.450027,123.825111 
	C219.620361,125.035561 216.776138,126.211983 213.934570,127.394623 
	C214.116791,127.824135 214.299011,128.253647 214.481232,128.683167 
	C242.947372,128.683167 271.413513,128.683167 300.454559,128.683167 
	C297.882874,124.127419 293.844818,123.982018 289.970673,123.888672 
	C274.505676,123.516045 259.037537,123.273201 243.570389,122.990784 
	C241.937164,122.960968 240.302917,122.986771 238.669144,122.986771 
	C238.664871,122.626503 238.660599,122.266228 238.656326,121.905960 
	C255.780472,121.079308 272.904633,120.252655 290.028778,119.426003 
	C290.044128,118.527840 290.059448,117.629677 290.074799,116.731514 
	C284.087524,116.156555 278.099091,115.095879 272.113220,115.110046 
	C260.468414,115.137611 248.810760,115.535728 237.187134,116.248680 
	C231.558731,116.593910 225.372055,115.682358 220.298233,120.967216 
	C220.533920,121.592072 220.769592,122.216927 221.621414,122.995033 
M266.805573,83.205688 
	C276.781067,83.076012 286.860229,84.554031 296.804443,80.994972 
	C293.873108,79.544693 290.855865,78.415565 287.751251,78.068855 
	C267.953278,75.857864 248.334198,78.769295 228.679398,80.442238 
	C225.891220,80.679558 223.009369,81.173973 220.442612,82.217682 
	C218.450745,83.027618 216.882660,84.879745 215.126205,86.268631 
	C215.370667,86.617905 215.615128,86.967186 215.859604,87.316460 
	C232.533554,85.949715 249.207489,84.582977 266.805573,83.205688 
M262.190491,102.800194 
	C247.246216,103.135765 232.322968,103.627922 217.807907,108.520584 
	C219.316147,110.020958 220.873260,110.837074 222.396500,110.778107 
	C244.302429,109.930115 266.205719,109.005463 288.103973,107.978203 
	C291.061676,107.839455 293.988525,107.042870 296.929657,106.550896 
	C296.879456,106.005280 296.829224,105.459656 296.779022,104.914040 
	C285.885468,100.258743 274.406586,102.783295 262.190491,102.800194 
M245.717819,91.406418 
	C236.733887,92.385841 227.063583,90.795853 219.695435,97.914528 
	C221.956360,98.475044 224.094498,98.571281 226.221771,98.460007 
	C245.455643,97.453896 264.687744,96.413719 283.919708,95.372017 
	C284.747864,95.327171 285.700836,95.395164 286.362946,95.010277 
	C287.267822,94.484283 288.261810,93.687912 288.593140,92.779640 
	C288.755981,92.333199 287.651031,91.056511 286.875366,90.721451 
	C285.703613,90.215302 284.310516,89.975525 283.024597,90.018036 
	C270.904633,90.418671 258.787415,90.903351 245.717819,91.406418 
z"/>
<path fill="#FBFCFE" opacity="1.000000" stroke="none" 
	d="
M198.920822,228.102661 
	C191.954483,220.235092 184.988144,212.367538 177.804672,204.212891 
	C188.231644,203.978729 198.875748,204.033646 209.519867,204.084167 
	C242.507416,204.240723 275.494843,204.448273 308.482574,204.525482 
	C321.806091,204.556671 335.130066,204.257721 348.454254,204.196487 
	C354.475830,204.168808 356.161774,205.882187 354.951416,211.747192 
	C353.985443,216.427872 352.244690,220.986252 350.431580,225.429031 
	C349.957153,226.591537 348.019440,227.553711 346.599121,227.839584 
	C344.513184,228.259430 342.286346,227.940323 340.122681,228.020477 
	C333.102539,228.280533 331.526367,229.483459 329.431488,236.133072 
	C316.833557,236.133072 304.207886,236.128586 291.582214,236.136932 
	C289.087677,236.138596 286.573242,236.001312 284.103180,236.261734 
	C280.296753,236.663055 277.695160,236.233566 276.105713,231.792435 
	C275.380981,229.767410 271.532654,227.747742 269.037445,227.665894 
	C259.407837,227.350052 249.748779,227.709091 240.108566,228.043304 
	C236.036774,228.184464 235.416534,229.197617 233.812973,235.807114 
	C229.926361,235.807114 225.955490,235.807114 221.528152,235.491882 
	C221.059494,234.830963 221.047318,234.485260 221.424835,234.074615 
	C225.985046,233.377716 230.031693,232.504608 233.400986,228.102661 
	C221.300095,228.102661 210.110458,228.102661 198.920822,228.102661 
M296.504333,234.020386 
	C314.139191,235.474197 322.759827,233.967361 328.357117,227.607010 
	C312.437012,230.229233 297.079742,224.994614 282.185425,229.782608 
	C282.151672,230.301636 282.117950,230.820663 282.084198,231.339706 
	C286.595703,232.207047 291.107208,233.074402 296.504333,234.020386 
z"/>
<path fill="#FCFDFE" opacity="1.000000" stroke="none" 
	d="
M343.024689,272.555542 
	C350.137909,258.067047 366.327820,252.046494 381.203796,257.956421 
	C395.385529,263.590515 403.142792,279.251740 398.543518,293.857849 
	C397.120178,298.377930 394.841553,302.775452 392.216003,306.739990 
	C386.549469,315.296387 384.823334,319.244019 383.834320,329.629211 
	C374.664490,329.629211 365.449921,329.629211 355.996643,329.629211 
	C355.243896,326.007751 354.313934,322.316437 353.811951,318.567871 
	C353.686646,317.632141 354.719208,316.243408 355.596222,315.518463 
	C362.801605,309.562317 364.117004,302.091461 357.764069,295.237457 
	C353.273407,290.392548 347.295349,286.926331 341.701324,282.629608 
	C342.042053,280.103424 342.523560,276.533844 343.024689,272.555542 
M379.258575,288.320831 
	C377.043701,287.161011 374.828857,286.001190 372.428467,284.744232 
	C373.936218,282.264008 375.438019,279.793640 377.367950,276.618896 
	C372.208618,276.618896 367.847778,276.618896 363.113556,276.618896 
	C362.039276,280.930420 360.931396,285.376801 359.834900,289.777588 
	C360.887878,290.347443 361.434052,290.825897 362.050507,290.947418 
	C366.605316,291.845154 368.009918,294.219849 366.393219,298.744385 
	C365.592834,300.984406 365.740997,303.563354 365.459991,305.988953 
	C365.994965,306.178314 366.529938,306.367645 367.064911,306.557007 
	C371.071472,300.736145 375.078033,294.915283 379.258575,288.320831 
z"/>
<path fill="#FCFDFE" opacity="1.000000" stroke="none" 
	d="
M283.798370,266.213562 
	C284.656281,267.409393 285.299530,268.290314 286.290527,269.647522 
	C267.901428,271.550995 250.763763,267.944244 232.823898,264.293793 
	C233.748581,261.148743 234.491669,258.176208 235.496353,255.294876 
	C237.729736,248.889771 239.983643,242.486069 242.505920,236.192719 
	C242.965530,235.045990 244.711884,233.724899 245.909760,233.679260 
	C252.359116,233.433548 258.823212,233.525742 265.281433,233.584869 
	C268.027588,233.610016 270.166840,234.422379 270.225250,237.822845 
	C270.238129,238.571960 271.031036,239.648102 271.744446,239.990021 
	C276.751740,242.389877 277.689331,247.146866 279.020020,251.802216 
	C280.376648,256.548065 282.049347,261.203583 283.798370,266.213562 
z"/>
<path fill="#FAFBFD" opacity="1.000000" stroke="none" 
	d="
M206.957611,280.038452 
	C208.829956,267.480133 208.493927,255.047058 204.628845,242.377914 
	C212.655258,241.974991 220.755585,241.974991 229.534943,241.974991 
	C229.321259,255.378937 217.435013,262.365906 213.663803,274.420715 
	C225.351562,269.397980 236.413742,272.129974 247.590195,275.147186 
	C234.197845,276.776459 220.805511,278.405762 206.957611,280.038452 
z"/>
<path fill="#EFF4FA" opacity="1.000000" stroke="none" 
	d="
M254.000885,57.144531 
	C264.148468,57.081036 274.036987,55.638672 283.657471,62.266815 
	C266.289429,62.266815 250.019989,62.266815 233.435959,62.266815 
	C234.130371,58.169018 236.406754,56.706127 240.052124,56.824352 
	C244.533981,56.969711 249.018219,57.041672 254.000885,57.144531 
z"/>
<path fill="#ECF2F9" opacity="1.000000" stroke="none" 
	d="
M346.672455,306.154785 
	C344.092285,300.882385 341.726624,295.888824 338.878601,289.877106 
	C347.065613,293.302704 350.058777,299.670685 348.461182,308.495544 
	C347.806396,307.637848 347.346680,307.035706 346.672455,306.154785 
z"/>
<path fill="#CBDAEE" opacity="1.000000" stroke="none" 
	d="
M221.035126,234.139572 
	C221.047318,234.485260 221.059494,234.830963 221.071594,235.436508 
	C215.257538,235.793900 209.443542,235.891434 203.131073,236.061646 
	C202.241638,235.436386 201.850693,234.738449 201.911163,233.711502 
	C208.586761,233.634842 214.810959,233.887207 221.035126,234.139572 
z"/>
<path fill="#004AAD" opacity="1.000000" stroke="none" 
	d="
M64.114609,250.330383 
	C70.485649,224.872482 85.363075,206.935196 109.689705,198.216522 
	C151.650742,183.177612 199.182663,210.750961 203.176788,258.711731 
	C204.631042,276.174316 200.345535,292.027802 190.131561,306.221893 
	C179.857101,320.500061 173.194183,336.299774 169.858231,353.962585 
	C164.888412,353.962585 160.084595,353.962616 155.280762,353.962616 
	C137.455414,353.962616 119.628677,353.844025 101.805817,354.054535 
	C97.863327,354.101074 96.448151,352.933624 95.677292,349.008881 
	C92.683510,333.766510 86.188194,319.984955 77.036507,307.456970 
	C64.582230,290.408081 60.441074,271.469696 64.114609,250.330383 
z"/>
<path fill="#C9C9C9" opacity="1.000000" stroke="none" 
	d="
M152.999268,396.432190 
	C133.896591,396.432281 115.293945,396.432281 96.410797,396.432281 
	C96.410797,382.964661 96.410797,369.905182 96.410797,356.519958 
	C120.858330,356.519958 145.217499,356.519958 170.005066,356.519958 
	C170.005066,369.527557 170.005066,382.556213 170.005066,396.432098 
	C164.642960,396.432098 159.071136,396.432098 152.999268,396.432190 
M129.500610,374.340912 
	C124.173447,374.341125 118.845711,374.293793 113.519310,374.357758 
	C109.767006,374.402802 109.767815,374.470245 110.567879,378.702393 
	C125.481262,378.702393 140.409271,378.702393 155.489548,378.702393 
	C156.410797,375.697815 155.887955,374.233185 152.474045,374.298798 
	C145.151917,374.439545 137.825180,374.341431 129.500610,374.340912 
M112.800163,387.076080 
	C109.277626,386.812958 109.555214,388.854584 110.370110,391.652954 
	C124.597733,391.652954 138.893265,391.724060 153.184509,391.508820 
	C154.248642,391.492767 155.281860,389.423767 156.329453,388.309174 
	C155.939117,387.897797 155.548767,387.486420 155.158432,387.075043 
	C141.353546,387.075043 127.548660,387.075043 112.800163,387.076080 
M140.495239,365.994568 
	C145.446243,365.994568 150.397263,365.994568 155.265869,365.994568 
	C156.469086,362.817291 155.564697,361.784607 152.580246,361.804749 
	C139.463165,361.893250 126.344414,361.919281 113.227997,361.791107 
	C109.763062,361.757263 109.357109,363.082825 110.442970,365.994568 
	C120.261490,365.994568 129.879410,365.994568 140.495239,365.994568 
z"/>
<path fill="#0950B0" opacity="1.000000" stroke="none" 
	d="
M173.071442,390.468231 
	C181.564911,393.994202 190.361969,394.317627 199.458069,393.031952 
	C220.142883,390.108215 240.859634,387.410706 261.465210,383.695068 
	C243.907043,382.446777 226.797348,388.247101 209.295578,387.187195 
	C209.173935,386.636475 209.052307,386.085785 208.930679,385.535095 
	C211.805893,384.687653 214.628876,383.512634 217.564575,383.044617 
	C241.054138,379.299622 264.613251,375.968750 288.051910,371.934723 
	C302.946899,369.371094 317.672974,365.825531 332.473083,362.712189 
	C333.226166,362.553772 333.963135,362.318848 334.707611,362.119568 
	C334.987274,362.537903 335.266968,362.956238 335.546661,363.374542 
	C333.900482,364.601593 332.405579,366.167572 330.576141,366.983948 
	C326.942749,368.605377 322.542938,369.032166 319.475403,371.316406 
	C294.747223,389.730225 264.945831,389.253357 236.564972,393.971954 
	C221.141602,396.536224 205.569031,398.234100 190.190445,401.021729 
	C183.918991,402.158569 177.983154,405.147003 171.521606,407.240753 
	C171.770660,401.766510 172.392746,396.344543 173.071442,390.468231 
z"/>
<path fill="#0A51B0" opacity="1.000000" stroke="none" 
	d="
M174.636566,354.222473 
	C183.308777,358.202423 192.526520,357.822632 201.251999,356.568787 
	C219.633652,353.927399 237.840485,350.069214 256.052704,346.224854 
	C235.771912,345.295898 216.430786,352.923492 196.329224,353.522308 
	C196.133270,352.945190 195.937317,352.368073 195.741364,351.790924 
	C197.967270,350.874969 200.115219,349.560150 202.431656,349.107483 
	C217.930420,346.078705 233.387619,342.696381 249.004837,340.445251 
	C277.925323,336.276428 307.174988,333.958588 334.822235,322.924927 
	C334.484924,327.353821 333.304352,329.366028 328.519318,330.805603 
	C322.495148,332.617981 316.240082,333.666687 310.078888,335.018585 
	C306.480225,335.808197 302.870331,336.546417 299.265472,337.307770 
	C299.356903,337.947815 299.448334,338.587830 299.539764,339.227875 
	C304.443451,338.791870 309.347107,338.355835 314.250793,337.919830 
	C314.373169,338.221283 314.495575,338.522736 314.617950,338.824188 
	C312.011780,339.963715 309.474426,341.308105 306.788574,342.210358 
	C285.068268,349.506622 262.436005,352.335236 239.959442,356.083191 
	C217.839325,359.771729 195.878693,364.416656 173.504669,368.750641 
	C173.574860,364.090027 173.988464,359.320679 174.636566,354.222473 
z"/>
<path fill="#0A51B0" opacity="1.000000" stroke="none" 
	d="
M198.934998,317.686401 
	C196.742126,317.374756 194.549240,317.063110 192.356369,316.751434 
	C192.300720,315.910858 192.245087,315.070282 192.189438,314.229675 
	C203.583527,311.491180 214.858719,308.002563 226.397003,306.173737 
	C248.877701,302.610504 271.585968,300.460632 294.036255,296.738098 
	C304.083313,295.072205 313.733765,291.018799 323.568451,288.062988 
	C325.093353,287.604675 326.641052,287.222382 328.413574,286.740967 
	C327.383453,292.396301 322.740753,296.068054 316.990906,297.075012 
	C310.543457,298.204193 304.190094,299.870575 297.795776,301.303192 
	C297.886047,301.840546 297.976349,302.377899 298.066620,302.915253 
	C303.203156,302.432404 308.339691,301.949585 313.476227,301.466736 
	C313.650482,302.029510 313.824768,302.592316 313.999054,303.155121 
	C311.785858,304.192688 309.671722,305.715485 307.343719,306.190918 
	C289.145081,309.907471 270.999847,314.040405 252.654755,316.845795 
	C229.171173,320.437012 205.450516,322.558289 182.338959,330.198975 
	C183.209579,327.358276 184.481659,324.464539 185.941467,321.270264 
	C190.149368,320.325836 194.169556,319.682007 198.996429,318.969177 
	C219.116531,316.194305 238.429962,313.488464 257.743378,310.782593 
	C257.673523,310.239471 257.603668,309.696320 257.533813,309.153198 
	C237.490662,307.872589 218.106857,311.922638 198.934998,317.686401 
z"/>
<path fill="#7F7F7F" opacity="1.000000" stroke="none" 
	d="
M126.401627,418.070312 
	C118.098000,416.936768 110.516602,414.886719 104.531143,409.463409 
	C101.737267,406.931946 99.852364,403.397278 96.772232,399.267059 
	C121.514160,399.267059 144.505310,399.267059 167.789734,399.267059 
	C168.422379,403.572296 165.755981,406.357300 162.972168,408.824066 
	C154.228394,416.571869 143.537506,418.400940 132.331207,418.410461 
	C130.507034,418.412018 128.682693,418.209747 126.401627,418.070312 
z"/>
<path fill="#074FAE" opacity="1.000000" stroke="none" 
	d="
M221.424850,234.074615 
	C214.810959,233.887207 208.586761,233.634842 201.849472,233.308167 
	C200.563354,231.724762 199.790344,230.215683 198.969070,228.404633 
	C210.110458,228.102661 221.300095,228.102661 233.400986,228.102661 
	C230.031693,232.504608 225.985046,233.377716 221.424850,234.074615 
z"/>
<path fill="#0950B0" opacity="1.000000" stroke="none" 
	d="
M170.831879,407.121521 
	C170.953537,407.443909 170.745895,407.764038 170.223846,408.175842 
	C170.107147,407.884796 170.304855,407.502045 170.831879,407.121521 
z"/>
<path fill="#E9F0F8" opacity="1.000000" stroke="none" 
	d="
M198.941742,317.970764 
	C218.106857,311.922638 237.490662,307.872589 257.533813,309.153198 
	C257.603668,309.696320 257.673523,310.239471 257.743378,310.782593 
	C238.429962,313.488464 219.116531,316.194305 199.392700,318.861511 
	C198.971039,318.633575 198.959778,318.444305 198.941742,317.970764 
z"/>
<path fill="#0950B0" opacity="1.000000" stroke="none" 
	d="
M220.839249,120.546288 
	C225.372055,115.682358 231.558731,116.593910 237.187134,116.248680 
	C248.810760,115.535728 260.468414,115.137611 272.113220,115.110046 
	C278.099091,115.095879 284.087524,116.156555 290.074799,116.731514 
	C290.059448,117.629677 290.044128,118.527840 290.028778,119.426003 
	C272.904633,120.252655 255.780472,121.079308 238.656326,121.905960 
	C238.660599,122.266228 238.664871,122.626503 238.669144,122.986771 
	C240.302917,122.986771 241.937164,122.960968 243.570389,122.990784 
	C259.037537,123.273201 274.505676,123.516045 289.970673,123.888672 
	C293.844818,123.982018 297.882874,124.127419 300.454559,128.683167 
	C271.413513,128.683167 242.947372,128.683167 214.481232,128.683167 
	C214.299011,128.253647 214.116791,127.824135 213.934570,127.394623 
	C216.776138,126.211983 219.620361,125.035561 222.450027,123.825111 
	C222.570068,123.773758 222.555023,123.406586 222.602905,123.186539 
	C222.275726,123.122704 221.948578,123.058868 221.301178,122.535126 
	C220.933701,121.565567 220.886475,121.055931 220.839249,120.546288 
z"/>
<path fill="#1156B2" opacity="1.000000" stroke="none" 
	d="
M266.343506,83.210960 
	C249.207489,84.582977 232.533554,85.949715 215.859604,87.316460 
	C215.615128,86.967186 215.370667,86.617905 215.126205,86.268631 
	C216.882660,84.879745 218.450745,83.027618 220.442612,82.217682 
	C223.009369,81.173973 225.891220,80.679558 228.679398,80.442238 
	C248.334198,78.769295 267.953278,75.857864 287.751251,78.068855 
	C290.855865,78.415565 293.873108,79.544693 296.804443,80.994972 
	C286.860229,84.554031 276.781067,83.076012 266.343506,83.210960 
z"/>
<path fill="#1156B2" opacity="1.000000" stroke="none" 
	d="
M262.661438,102.798416 
	C274.406586,102.783295 285.885468,100.258743 296.779022,104.914040 
	C296.829224,105.459656 296.879456,106.005280 296.929657,106.550896 
	C293.988525,107.042870 291.061676,107.839455 288.103973,107.978203 
	C266.205719,109.005463 244.302429,109.930115 222.396500,110.778107 
	C220.873260,110.837074 219.316147,110.020958 217.807907,108.520584 
	C232.322968,103.627922 247.246216,103.135765 262.661438,102.798416 
z"/>
<path fill="#1055B2" opacity="1.000000" stroke="none" 
	d="
M246.193619,91.385101 
	C258.787415,90.903351 270.904633,90.418671 283.024597,90.018036 
	C284.310516,89.975525 285.703613,90.215302 286.875366,90.721451 
	C287.651031,91.056511 288.755981,92.333199 288.593140,92.779640 
	C288.261810,93.687912 287.267822,94.484283 286.362946,95.010277 
	C285.700836,95.395164 284.747864,95.327171 283.919708,95.372017 
	C264.687744,96.413719 245.455643,97.453896 226.221771,98.460007 
	C224.094498,98.571281 221.956360,98.475044 219.695435,97.914528 
	C227.063583,90.795853 236.733887,92.385841 246.193619,91.385101 
z"/>
<path fill="#0F54B2" opacity="1.000000" stroke="none" 
	d="
M220.568741,120.756752 
	C220.886475,121.055931 220.933701,121.565567 220.993103,122.458496 
	C220.769592,122.216927 220.533920,121.592072 220.568741,120.756752 
z"/>
<path fill="#1358B3" opacity="1.000000" stroke="none" 
	d="
M296.061523,233.981079 
	C291.107208,233.074402 286.595703,232.207047 282.084198,231.339706 
	C282.117950,230.820663 282.151672,230.301636 282.185425,229.782608 
	C297.079742,224.994614 312.437012,230.229233 328.357117,227.607010 
	C322.759827,233.967361 314.139191,235.474197 296.061523,233.981079 
z"/>
<path fill="#0B52B0" opacity="1.000000" stroke="none" 
	d="
M379.171570,288.707642 
	C375.078033,294.915283 371.071472,300.736145 367.064911,306.557007 
	C366.529938,306.367645 365.994965,306.178314 365.459991,305.988953 
	C365.740997,303.563354 365.592834,300.984406 366.393219,298.744385 
	C368.009918,294.219849 366.605316,291.845154 362.050507,290.947418 
	C361.434052,290.825897 360.887878,290.347443 359.834900,289.777588 
	C360.931396,285.376801 362.039276,280.930420 363.113556,276.618896 
	C367.847778,276.618896 372.208618,276.618896 377.367950,276.618896 
	C375.438019,279.793640 373.936218,282.264008 372.428467,284.744232 
	C374.828857,286.001190 377.043701,287.161011 379.171570,288.707642 
z"/>
<path fill="#1F1F1F" opacity="1.000000" stroke="none" 
	d="
M130.000473,374.341003 
	C137.825180,374.341431 145.151917,374.439545 152.474045,374.298798 
	C155.887955,374.233185 156.410797,375.697815 155.489548,378.702393 
	C140.409271,378.702393 125.481262,378.702393 110.567879,378.702393 
	C109.767815,374.470245 109.767006,374.402802 113.519310,374.357758 
	C118.845711,374.293793 124.173447,374.341125 130.000473,374.341003 
z"/>
<path fill="#1F1F1F" opacity="1.000000" stroke="none" 
	d="
M113.271973,387.075562 
	C127.548660,387.075043 141.353546,387.075043 155.158432,387.075043 
	C155.548767,387.486420 155.939117,387.897797 156.329453,388.309174 
	C155.281860,389.423767 154.248642,391.492767 153.184509,391.508820 
	C138.893265,391.724060 124.597733,391.652954 110.370110,391.652954 
	C109.555214,388.854584 109.277626,386.812958 113.271973,387.075562 
z"/>
<path fill="#010101" opacity="1.000000" stroke="none" 
	d="
M139.996292,365.994568 
	C129.879410,365.994568 120.261490,365.994568 110.442970,365.994568 
	C109.357109,363.082825 109.763062,361.757263 113.227997,361.791107 
	C126.344414,361.919281 139.463165,361.893250 152.580246,361.804749 
	C155.564697,361.784607 156.469086,362.817291 155.265869,365.994568 
	C150.397263,365.994568 145.446243,365.994568 139.996292,365.994568 
z"/>
</svg>