<svg version="1.1" id="Layer_1" xmlns="http://www.w3.org/2000/svg" xmlns:xlink="http://www.w3.org/1999/xlink" x="0px" y="0px"
	 width="100%" viewBox="0 0 500 500" enable-background="new 0 0 500 500" xml:space="preserve">
<path fill="#FFFFFF" opacity="1.000000" stroke="none" 
	d="
M268.000000,501.000000 
	C178.666687,501.000000 89.833374,501.000000 1.000048,501.000000 
	C1.000032,334.333405 1.000032,167.666794 1.000016,1.000137 
	C167.666565,1.000091 334.333130,1.000091 500.999756,1.000046 
	C500.999847,167.666519 500.999847,334.333038 500.999939,500.999786 
	C423.500000,501.000000 346.000000,501.000000 268.000000,501.000000 
M169.534485,393.167480 
	C169.294205,393.330109 169.119339,393.545776 168.239960,393.927551 
	C163.057724,395.163879 159.603546,398.036682 159.123215,403.658905 
	C158.971680,405.432465 158.946274,407.216797 158.246262,408.976837 
	C157.834747,408.980499 157.423248,408.984131 156.944519,408.399994 
	C156.542313,408.088226 156.140091,407.776459 155.737885,407.464691 
	C155.638535,407.728790 155.411972,408.195862 155.459457,408.225647 
	C155.943100,408.528656 156.471359,408.760468 157.081055,409.672089 
	C158.058563,409.514893 159.036087,409.357697 160.786774,409.077637 
	C164.522018,407.328125 168.257263,405.578583 172.756042,403.979980 
	C175.659836,405.606262 178.457230,407.489746 181.511139,408.753113 
	C183.099426,409.410156 185.140640,408.972351 187.659332,409.088623 
	C188.502533,408.421906 189.345749,407.755188 190.969666,407.035431 
	C194.703125,405.839539 198.436600,404.643677 202.646255,403.412567 
	C203.031311,402.951111 203.416367,402.489624 204.646393,402.037628 
	C209.097366,400.654388 213.548340,399.271179 218.610321,397.884247 
	C219.136185,397.283417 219.662048,396.682617 220.956802,396.032593 
	C223.637619,395.318817 226.318436,394.605072 229.610596,393.890472 
	C230.136688,393.290009 230.662781,392.689514 231.969437,392.035522 
	C235.702972,390.839630 239.436523,389.643707 243.646255,388.412567 
	C244.031311,387.951111 244.416367,387.489624 245.648376,387.040527 
	C250.098602,385.661682 254.548828,384.282806 259.610260,382.886261 
	C260.136139,382.284760 260.662018,381.683289 261.956696,381.032623 
	C264.637543,380.318848 267.318390,379.605072 270.610596,378.890472 
	C271.136688,378.289978 271.662781,377.689484 272.958771,377.039459 
	C275.638916,376.323395 278.319061,375.607330 281.610596,374.890472 
	C282.136688,374.290009 282.662781,373.689514 283.940033,373.039642 
	C285.626343,372.665863 287.312653,372.292114 289.585052,371.902161 
	C290.047943,371.557953 290.510803,371.213745 291.485504,371.028320 
	C291.656799,370.977722 291.828125,370.927124 292.608276,370.890411 
	C293.123993,370.283783 293.639679,369.677155 294.897095,369.022095 
	C297.406219,366.387207 299.915314,363.752319 302.480652,361.058350 
	C306.049866,362.258026 310.079132,363.612335 314.548309,365.421844 
	C315.355499,365.564362 316.162659,365.706879 317.470978,366.025726 
	C317.647949,366.018982 317.824890,366.012207 318.436951,366.491089 
	C319.279419,366.603607 320.121918,366.716125 321.638031,366.997711 
	C322.099182,366.998627 322.560364,366.999542 323.645020,367.460144 
	C325.749908,367.584290 327.854767,367.708405 330.834839,367.981781 
	C332.901825,367.931946 334.968811,367.882111 337.754425,367.959900 
	C338.900665,367.663971 340.046936,367.368011 341.813934,367.135956 
	C342.217041,367.037262 342.620148,366.938568 343.688232,366.956451 
	C344.494049,366.651154 345.299896,366.345886 346.585144,366.080505 
	C346.585144,366.080505 347.019501,365.873779 347.652771,365.962982 
	C348.402405,365.632202 349.152039,365.301422 350.644745,364.975555 
	C357.161133,362.399750 363.047272,358.971497 367.482910,352.376038 
	C367.599670,350.929260 367.716431,349.482483 367.985565,347.351685 
	C368.021454,346.654266 368.057343,345.956818 368.501892,344.604797 
	C368.613098,343.081085 368.724304,341.557404 368.994812,339.367188 
	C369.033569,338.686218 369.072327,338.005249 369.546112,336.715363 
	C369.640106,335.491058 369.734100,334.266754 369.981659,332.284027 
	C369.986328,331.511536 369.990967,330.739044 370.427307,329.382019 
	C370.561493,327.934662 370.695679,326.487274 370.981720,324.281799 
	C370.986267,323.510010 370.990845,322.738190 371.413116,321.374969 
	C371.550964,319.931061 371.688812,318.487183 371.981171,316.303833 
	C372.021301,315.299896 372.061462,314.295990 372.514496,312.633575 
	C372.621277,311.100922 372.728058,309.568237 372.985260,307.347687 
	C373.019684,306.646912 373.054108,305.946106 373.486176,304.588562 
	C373.601868,303.071106 373.717590,301.553619 373.982544,299.223297 
	C374.047852,297.857330 374.113159,296.491333 374.619598,294.442932 
	C376.763885,275.679688 378.826752,256.906677 381.075897,238.156006 
	C383.226318,220.228653 385.610992,202.329514 387.814941,184.408432 
	C389.228790,172.912262 390.501801,161.398773 392.024597,149.098877 
	C392.875336,141.884216 394.027649,134.689682 394.510895,127.450493 
	C395.381531,114.407158 395.891693,101.338806 396.452972,88.276634 
	C396.557800,85.837357 395.794220,84.585121 392.593140,84.764679 
	C387.772614,85.035057 382.891113,84.219398 378.046875,83.014404 
	C378.046875,81.566391 378.046875,80.118385 378.046875,78.513733 
	C376.890930,78.312653 376.102448,78.080421 375.306519,78.051140 
	C360.374817,77.501717 345.431274,77.171051 330.516144,76.333046 
	C325.743378,76.064888 323.473877,77.513016 322.381561,82.061188 
	C319.838043,82.387207 317.294525,82.713219 314.273346,83.593521 
	C314.190002,85.072098 314.106628,86.550674 314.098663,88.524323 
	C314.030579,88.676727 313.962463,88.829132 313.134857,88.979675 
	C311.415039,87.973434 309.695221,86.967186 307.877838,85.124008 
	C308.753815,82.005898 307.260345,80.584564 304.346649,80.100418 
	C300.100616,79.394890 295.863098,78.638023 291.691772,77.101601 
	C292.515747,74.540489 291.779266,72.933411 288.946594,72.599091 
	C283.566925,71.964142 278.190826,71.297218 272.807159,70.698227 
	C268.689636,70.240105 264.555969,69.852928 263.527618,75.460266 
	C263.477020,75.421562 263.426422,75.382858 263.375824,75.344154 
	C263.596130,75.354126 263.816437,75.364090 262.742126,75.509941 
	C255.004868,76.410927 247.279526,77.441139 239.525070,78.155495 
	C235.931122,78.486572 234.543869,80.368095 234.465576,83.630562 
	C234.090546,99.256752 233.745102,114.883652 233.184784,131.490051 
	C232.195648,154.088364 231.150360,176.684418 230.234726,199.285706 
	C229.467392,218.226257 228.851456,237.172943 228.012527,256.972076 
	C227.999512,259.292664 227.986481,261.613251 227.670486,264.697784 
	C227.499649,273.121002 227.328812,281.544220 227.020081,290.806915 
	C227.835175,294.919952 224.938583,295.322632 222.037582,296.034149 
	C211.323151,298.662048 200.641922,301.425385 189.122467,303.925323 
	C187.655365,304.116425 186.153290,304.166504 184.726562,304.520355 
	C169.933365,308.189148 155.137726,311.850067 140.373184,315.631958 
	C131.199539,317.981750 122.078117,320.535492 113.008369,323.011475 
	C113.008369,323.011475 113.026474,322.937286 112.727753,323.104004 
	C112.662766,323.314453 112.616486,323.528931 111.687042,323.867950 
	C110.549133,324.162994 109.411224,324.458038 107.737450,324.096893 
	C102.322662,325.340271 99.208420,328.995087 98.045792,334.148254 
	C96.684708,340.181000 98.645767,345.169617 103.631676,349.018188 
	C117.795486,359.951111 131.899612,370.961304 145.995270,382.494843 
	C145.719208,382.932800 145.443146,383.370728 144.917831,383.532959 
	C144.778976,383.508850 144.640137,383.484711 144.501282,383.460602 
	C144.589020,383.712708 144.676743,383.964844 144.916855,384.890106 
	C146.318878,385.951691 147.720901,387.013275 149.855392,388.629486 
	C149.454773,385.998383 149.243347,384.609924 149.811874,383.100250 
	C155.174973,381.533600 160.528900,379.934204 165.908920,378.427979 
	C166.983490,378.127167 168.585007,377.650513 169.216873,378.158630 
	C173.489304,381.594299 177.566345,385.272919 180.820297,388.885254 
	C180.527359,388.923767 180.234421,388.962280 179.349792,389.039032 
	C178.894638,389.591644 178.439468,390.144287 177.235886,390.965179 
	C175.449707,391.304749 173.663544,391.644287 171.331314,392.000519 
	C170.891647,392.273346 170.451996,392.546204 170.050644,392.952209 
	C170.050644,392.952209 169.919647,392.997375 169.534485,393.167480 
M158.239838,395.437683 
	C158.599106,395.421051 158.958359,395.404419 159.317627,395.387817 
	C158.895676,395.241241 158.473724,395.094666 158.024277,394.195618 
	C156.986145,393.475311 155.948029,392.755005 154.458282,391.978241 
	C154.458282,391.978241 154.006088,392.029999 154.074326,391.320221 
	C152.737671,389.404968 150.688354,389.896332 147.247238,392.968597 
	C146.507187,392.918945 145.767151,392.869324 144.989151,392.097931 
	C144.989151,390.902191 144.989151,389.706451 144.989151,388.510742 
	C144.558640,388.459229 144.128143,388.407715 143.697632,388.356201 
	C143.461716,389.903168 143.225784,391.450134 142.789703,393.713562 
	C142.390991,394.012939 142.035599,394.431091 141.587326,394.594604 
	C118.155853,403.141571 96.040558,400.854767 76.380066,385.132538 
	C57.080288,369.698792 50.438545,348.890259 53.505318,324.745178 
	C53.951469,321.232513 55.181030,317.819336 56.087635,314.202332 
	C54.825581,313.862061 52.919674,313.348175 51.024876,312.418732 
	C51.024876,312.418732 51.001816,312.003662 51.560360,311.618622 
	C52.870468,310.482880 54.367317,309.489380 55.395641,308.139038 
	C55.788189,307.623596 55.107304,306.290741 54.975731,304.601074 
	C54.977531,304.357147 54.979332,304.113251 55.243202,303.203644 
	C55.489182,302.045929 55.735165,300.888184 55.981140,299.730469 
	C54.773479,300.203247 53.342041,300.408112 52.397976,301.196533 
	C48.840115,304.167877 50.927738,308.493042 49.272217,312.549774 
	C47.853817,312.384521 46.435417,312.219269 44.962242,311.411041 
	C44.392574,311.255585 43.822906,311.100098 43.253239,310.944611 
	C43.885944,311.608063 44.518650,312.271484 45.812016,313.290741 
	C44.996933,319.355438 43.707783,325.399963 43.448536,331.488312 
	C42.304539,358.355133 50.939354,380.984497 74.224174,395.958618 
	C98.956680,411.863678 125.223282,412.126038 152.125259,401.529816 
	C155.417801,400.232971 157.243835,398.811157 157.083572,395.092285 
	C157.378876,395.076019 157.674194,395.059784 158.239838,395.437683 
M46.436974,297.349182 
	C46.665615,297.800690 46.894257,298.252228 47.122890,298.703735 
	C47.434566,298.193512 47.746246,297.683289 48.454037,296.652008 
	C52.635944,297.434631 56.817848,298.217255 60.949360,299.645874 
	C61.134964,300.228943 61.320564,300.811981 61.506168,301.395050 
	C61.926128,300.982819 62.346092,300.570618 62.766052,300.158386 
	C62.177284,299.772247 61.588520,299.386078 61.025593,298.214447 
	C61.492813,295.521698 61.960030,292.828979 62.486813,289.792938 
	C58.339893,288.997009 54.714287,288.301178 51.751301,287.732483 
	C49.890907,291.299500 48.396004,294.165741 46.436974,297.349182 
M61.480495,307.341309 
	C61.529289,306.374237 61.578083,305.407135 61.626873,304.440063 
	C61.136818,304.491852 60.646759,304.543671 60.156704,304.595490 
	C60.385769,305.461029 60.614838,306.326569 61.480495,307.341309 
M59.465218,311.442749 
	C59.860840,310.872406 60.256466,310.302032 60.652088,309.731720 
	C60.369877,309.613647 59.859833,309.362854 59.839695,309.397400 
	C59.547058,309.899811 59.320007,310.440430 59.465218,311.442749 
M58.811085,313.746613 
	C58.971397,313.629883 59.131714,313.513123 59.292023,313.396362 
	C59.068874,313.420441 58.845722,313.444489 58.811085,313.746613 
M152.591263,405.517792 
	C152.591263,405.517792 152.473984,405.588226 152.591263,405.517792 
z"/>
<path fill="#004AAC" opacity="1.000000" stroke="none" 
	d="
M202.170074,403.447815 
	C198.436600,404.643677 194.703125,405.839539 190.234924,407.010803 
	C188.961731,406.591431 188.423279,406.196716 187.929199,405.420959 
	C188.638916,401.154877 189.308884,397.270538 189.967697,393.384369 
	C190.283783,391.519745 190.578796,389.651581 191.248245,387.731262 
	C194.952362,386.477966 198.291580,385.278381 201.630814,384.078796 
	C201.417038,383.574127 201.203262,383.069458 200.989502,382.564789 
	C197.655197,384.065094 194.320908,385.565399 190.609955,387.051025 
	C188.489578,386.209808 186.533691,385.660614 185.034775,384.514038 
	C168.934967,372.198578 152.873840,359.831848 136.872314,347.388885 
	C127.275208,339.926025 117.802132,332.303711 108.273308,324.753052 
	C109.411224,324.458038 110.549133,324.162994 112.166702,323.661621 
	C112.761726,323.274292 112.888428,323.101624 113.026474,322.937286 
	C113.026474,322.937286 113.008369,323.011475 113.395958,323.034607 
	C122.499527,321.054443 131.251999,319.196289 139.923706,317.016846 
	C156.622681,312.819855 173.275970,308.441132 189.948212,304.137787 
	C200.641922,301.425385 211.323151,298.662048 222.037582,296.034149 
	C224.938583,295.322632 227.835175,294.919952 227.352234,290.070831 
	C227.780762,280.867767 227.877121,272.400818 227.973480,263.933838 
	C227.986481,261.613251 227.999512,259.292664 228.369644,256.695374 
	C243.830521,275.650269 264.038666,282.815826 287.914215,281.839874 
	C287.905762,282.507111 287.845276,282.769714 287.546997,283.312469 
	C287.245148,284.573639 287.181061,285.554718 287.263611,286.928955 
	C286.868408,291.558868 286.326599,295.795624 285.547028,300.312439 
	C285.245209,301.573486 285.181152,302.554382 285.232758,303.937469 
	C284.546631,311.844360 283.744843,319.349091 282.747314,327.153168 
	C282.371216,328.635681 282.190887,329.818878 281.777740,331.180237 
	C282.076721,331.886536 282.608551,332.414703 283.413177,333.057495 
	C284.439758,333.780304 285.193481,334.388489 286.125000,335.317566 
	C290.773407,336.075104 288.261749,332.674805 289.016296,330.612122 
	C290.186981,322.815613 291.201904,315.390839 292.453674,307.686707 
	C292.758636,306.428253 292.826782,305.449127 292.774414,304.070190 
	C293.174927,299.435333 293.695923,295.200287 294.432312,290.745056 
	C294.542664,289.375732 294.437592,288.226593 294.197021,286.708862 
	C294.461182,284.878510 294.860840,283.416687 295.476379,281.689941 
	C295.724304,280.750031 295.756317,280.075073 295.776611,279.350281 
	C295.764832,279.300446 295.801880,279.205048 296.142456,279.239746 
	C316.130005,293.257050 338.446472,297.236969 361.942841,296.578552 
	C366.031738,296.463928 370.100433,295.628082 374.178467,295.125366 
	C374.113159,296.491333 374.047852,297.857330 373.656006,299.914215 
	C373.249146,302.151855 373.168823,303.698608 373.088531,305.245331 
	C373.054108,305.946106 373.019684,306.646912 372.656921,307.978699 
	C372.252960,310.170502 372.177277,311.731262 372.101593,313.292053 
	C372.061462,314.295990 372.021301,315.299896 371.658752,316.940613 
	C371.222656,319.040375 371.109039,320.503387 370.995422,321.966400 
	C370.990845,322.738190 370.986267,323.510010 370.660278,324.928162 
	C370.224426,327.038544 370.110016,328.502533 369.995605,329.966553 
	C369.990967,330.739044 369.986328,331.511536 369.656189,332.938049 
	C369.257477,334.836151 369.184265,336.080231 369.111084,337.324280 
	C369.072327,338.005249 369.033569,338.686218 368.662781,339.986053 
	C368.251556,342.156403 368.172363,343.707916 368.093201,345.259399 
	C368.057343,345.956818 368.021454,346.654266 367.665100,347.957092 
	C367.222626,350.008087 367.100616,351.453674 366.978607,352.899261 
	C363.047272,358.971497 357.161133,362.399750 349.953979,364.980499 
	C348.515320,365.281555 347.767426,365.577667 347.019501,365.873779 
	C347.019501,365.873779 346.585144,366.080505 346.009033,366.047852 
	C344.629730,366.290100 343.826477,366.564972 343.023254,366.839844 
	C342.620148,366.938568 342.217041,367.037262 341.132019,367.081421 
	C339.312012,367.295349 338.173920,367.563843 337.035797,367.832275 
	C334.968811,367.882111 332.901825,367.931946 330.107147,367.654175 
	C327.260132,367.217896 325.140839,367.109192 323.021515,367.000488 
	C322.560364,366.999542 322.099182,366.998627 321.078735,366.682312 
	C319.680206,366.246429 318.841034,366.125916 318.001831,366.005432 
	C317.824890,366.012207 317.647949,366.018982 317.010315,365.706482 
	C315.735870,365.247070 314.922150,365.106873 314.108398,364.966675 
	C310.079132,363.612335 306.049866,362.258026 302.480652,361.058350 
	C299.915314,363.752319 297.406219,366.387207 294.201416,369.056610 
	C293.003662,369.686249 292.501556,370.281372 291.999451,370.876495 
	C291.828125,370.927124 291.656799,370.977722 291.048096,370.742920 
	C290.073425,370.944458 289.536194,371.431396 288.998962,371.918335 
	C287.312653,372.292114 285.626343,372.665863 283.235779,373.068848 
	C282.020752,373.695831 281.509979,374.293549 280.999237,374.891296 
	C278.319061,375.607330 275.638916,376.323395 272.245117,377.068787 
	C271.020721,377.695801 270.509979,378.293549 269.999207,378.891296 
	C267.318390,379.605072 264.637543,380.318848 261.242432,381.064636 
	C260.018494,381.699066 259.508759,382.301483 258.999054,382.903931 
	C254.548828,384.282806 250.098602,385.661682 245.029236,387.129822 
	C243.996750,387.628662 243.583405,388.038239 243.170074,388.447815 
	C239.436523,389.643707 235.702972,390.839630 231.250473,392.066803 
	C230.020752,392.695831 229.510010,393.293579 228.999268,393.891296 
	C226.318436,394.605072 223.637619,395.318817 220.243805,396.064026 
	C219.020294,396.692932 218.509811,397.290466 217.999313,397.887970 
	C213.548340,399.271179 209.097366,400.654388 204.028229,402.128357 
	C202.996750,402.628662 202.583420,403.038239 202.170074,403.447815 
M252.883560,317.835510 
	C252.967316,313.418579 250.646729,312.507996 246.937195,312.869202 
	C245.886063,311.440948 244.878769,309.977753 243.775085,308.591370 
	C241.118774,305.254639 236.019211,305.063782 233.914764,300.741058 
	C233.396133,299.675720 230.802811,299.367371 229.125748,299.251038 
	C228.506226,299.208069 227.778870,300.719940 227.100708,301.522675 
	C228.322342,302.419006 229.515594,303.358368 230.779099,304.191162 
	C231.310822,304.541656 232.237946,304.483215 232.565460,304.923218 
	C236.054489,309.610596 240.720551,312.692230 245.900818,315.764679 
	C248.188263,316.737305 250.475693,317.709930 252.259888,319.354584 
	C251.874908,323.144379 254.561707,323.239929 257.045990,322.989868 
	C257.981018,322.895752 258.790985,321.559387 259.657990,320.789368 
	C257.783417,319.901367 255.927368,318.968903 254.015228,318.171021 
	C253.711456,318.044250 253.155045,318.523041 252.883560,317.835510 
M257.695618,313.216400 
	C258.729095,314.098145 259.762543,314.979889 260.971802,316.159058 
	C261.069366,316.217651 261.166931,316.276215 261.264496,316.334808 
	C261.129059,316.156677 260.993591,315.978516 261.187195,315.143463 
	C261.917114,312.344147 262.954376,309.574066 263.224640,306.731079 
	C263.331787,305.603912 261.736023,304.314911 260.915588,303.099579 
	C259.927460,303.989044 258.636566,304.709290 258.022491,305.807861 
	C257.114380,307.432373 256.687042,309.325653 255.677185,310.764313 
	C256.166809,311.510406 256.656464,312.256470 257.695618,313.216400 
M299.997345,345.294434 
	C299.725342,345.357788 299.453339,345.421143 299.181335,345.484497 
	C299.366974,345.738983 299.552612,345.993439 299.267883,346.704071 
	C284.578369,352.126923 269.888885,357.549774 255.199371,362.972626 
	C255.335739,363.375183 255.472122,363.777710 255.608505,364.180237 
	C257.264282,363.664703 258.943542,363.213837 260.572144,362.623322 
	C272.878143,358.161041 285.161469,353.635620 297.493622,349.247223 
	C298.690277,348.821411 300.169708,349.190277 302.245483,349.190277 
	C301.817017,348.390411 301.080200,347.014893 299.997345,345.294434 
M316.486633,335.636658 
	C317.166016,333.817413 317.845428,331.998169 318.564270,330.073212 
	C319.968231,330.394653 321.395172,331.008453 322.788330,330.939423 
	C323.716705,330.893402 324.895966,330.056213 325.399750,329.229828 
	C325.773315,328.617004 325.408020,326.715759 325.087769,326.643219 
	C319.903351,325.469269 317.961945,322.064148 317.904388,317.061157 
	C317.899170,316.606567 316.639587,316.166443 315.779205,315.465576 
	C315.460785,315.296814 315.213409,315.384613 314.379700,316.116333 
	C313.694183,318.030304 313.008636,319.944305 312.627838,321.007507 
	C310.382172,321.491608 308.580780,321.652557 307.049011,322.380676 
	C306.695343,322.548828 306.988464,325.592712 307.451752,325.729614 
	C311.945892,327.057068 312.940094,330.009216 312.199066,334.221344 
	C312.100677,334.780609 313.400116,335.585785 314.373810,336.635284 
	C314.905670,336.478790 315.437561,336.322327 316.486633,335.636658 
M239.899643,289.354279 
	C240.060852,285.861542 240.297028,282.370178 240.358917,278.875671 
	C240.406158,276.207916 239.900543,273.625122 236.458374,273.685669 
	C233.143005,273.743958 233.197266,276.324432 233.142075,278.739716 
	C233.054626,282.567596 233.331512,286.472534 232.660019,290.201843 
	C231.713623,295.457855 234.890900,296.920471 238.768539,298.528931 
	C239.152100,295.519836 239.488739,292.878967 239.899643,289.354279 
M252.993881,364.049927 
	C236.392883,369.960938 219.791870,375.871948 203.190872,381.782959 
	C203.335205,382.213379 203.479553,382.643799 203.623886,383.074249 
	C205.151993,382.640717 206.714645,382.301758 208.202560,381.758240 
	C217.556198,378.341492 226.916412,374.940460 236.227280,371.409851 
	C242.057098,369.199219 247.804398,366.770966 252.993881,364.049927 
M246.797897,304.391693 
	C246.793701,304.785919 246.789505,305.180115 246.785309,305.574341 
	C246.948898,305.575836 247.254700,305.588287 247.255539,305.577271 
	C247.285797,305.184998 247.287476,304.790558 246.797897,304.391693 
M273.296173,324.431793 
	C273.010620,324.704285 272.725067,324.976776 272.439545,325.249298 
	C272.552551,325.367493 272.757568,325.594696 272.765228,325.588196 
	C273.066406,325.333801 273.349640,325.058167 273.296173,324.431793 
M268.391571,322.202301 
	C268.785797,322.206451 269.179993,322.210632 269.574219,322.214813 
	C269.575745,322.051208 269.588196,321.745453 269.577148,321.744629 
	C269.184906,321.714355 268.790436,321.712677 268.391571,322.202301 
M242.920288,301.479553 
	C242.775467,301.236053 242.630646,300.992554 242.485809,300.749054 
	C242.351669,301.000153 242.056702,301.314850 242.124451,301.486084 
	C242.207657,301.696411 242.593796,301.786835 242.920288,301.479553 
M264.079773,318.520538 
	C264.224579,318.764038 264.369415,319.007507 264.514221,319.251007 
	C264.648315,318.999908 264.943207,318.685242 264.875458,318.513947 
	C264.792328,318.303711 264.406189,318.213257 264.079773,318.520538 
M251.178879,308.030548 
	C251.273788,308.435883 251.368698,308.841217 251.463593,309.246552 
	C251.584030,309.157684 251.816193,309.053467 251.806427,308.982544 
	C251.749786,308.571075 251.636230,308.167419 251.178879,308.030548 
M277.079773,328.520538 
	C277.224609,328.764038 277.369415,329.007507 277.514252,329.251007 
	C277.648346,328.999908 277.943237,328.685181 277.875488,328.513947 
	C277.792328,328.303680 277.406189,328.213257 277.079773,328.520538 
z"/>
<path fill="#010102" opacity="1.000000" stroke="none" 
	d="
M374.399048,294.784180 
	C370.100433,295.628082 366.031738,296.463928 361.942841,296.578552 
	C338.446472,297.236969 316.130005,293.257050 296.066895,278.782166 
	C300.220306,233.055435 304.789886,187.820999 309.673279,142.746460 
	C324.680847,151.222412 340.509918,155.193771 357.314880,154.023087 
	C368.862457,153.218643 380.332977,151.308792 391.837952,149.893051 
	C390.501801,161.398773 389.228790,172.912262 387.814941,184.408432 
	C385.610992,202.329514 383.226318,220.228653 381.075897,238.156006 
	C378.826752,256.906677 376.763885,275.679688 374.399048,294.784180 
M313.653259,226.227417 
	C315.725372,203.866394 317.803101,181.505905 319.861877,159.143646 
	C320.094299,156.618790 320.461121,153.661636 316.936859,153.365463 
	C313.701752,153.093597 313.038483,155.585297 312.811340,158.363297 
	C312.092896,167.149933 311.220306,175.923996 310.403046,184.702530 
	C308.629791,203.750229 306.835602,222.796005 305.100586,241.847198 
	C304.863434,244.451508 304.244324,247.802444 308.221649,247.848877 
	C311.744659,247.889999 311.969818,244.853027 312.169342,242.050217 
	C312.523621,237.073364 313.060822,232.109528 313.653259,226.227417 
z"/>
<path fill="#010102" opacity="1.000000" stroke="none" 
	d="
M287.862183,281.435211 
	C264.038666,282.815826 243.830521,275.650269 228.447632,256.267792 
	C228.851456,237.172943 229.467392,218.226257 230.234726,199.285706 
	C231.150360,176.684418 232.195648,154.088364 233.589417,131.180679 
	C235.891739,131.614059 237.789413,132.356812 239.755096,133.530197 
	C239.679977,138.939346 239.596405,143.920425 239.380844,148.895782 
	C238.985764,158.015152 238.355148,167.128891 238.224533,176.250732 
	C238.202255,177.805588 240.181900,179.389114 241.236694,180.959412 
	C242.531067,179.520782 243.896454,178.136917 245.074829,176.608841 
	C245.411209,176.172623 245.214783,175.318466 245.246170,174.655182 
	C245.857941,161.726715 246.467255,148.798111 247.481705,135.902374 
	C248.858078,136.136444 249.838959,136.301590 250.800217,136.544327 
	C267.840973,140.847321 284.998230,142.910431 302.450348,139.784271 
	C299.924011,166.236649 297.515137,192.185898 294.850983,218.108871 
	C292.679871,239.233932 290.203278,260.327606 287.862183,281.435211 
z"/>
<path fill="#014BAC" opacity="1.000000" stroke="none" 
	d="
M391.931274,149.495972 
	C380.332977,151.308792 368.862457,153.218643 357.314880,154.023087 
	C340.509918,155.193771 324.680847,151.222412 309.623291,142.390640 
	C309.696716,137.598999 310.194855,133.328247 310.559967,129.046173 
	C311.698486,115.693596 312.786652,102.336739 313.894379,88.981537 
	C313.962463,88.829132 314.030579,88.676727 314.254608,87.967346 
	C314.524048,85.953316 314.637512,84.496277 314.751007,83.039230 
	C317.294525,82.713219 319.838043,82.387207 323.174561,82.301147 
	C341.990204,82.982536 360.012878,83.423973 378.035553,83.865417 
	C382.891113,84.219398 387.772614,85.035057 392.593140,84.764679 
	C395.794220,84.585121 396.557800,85.837357 396.452972,88.276634 
	C395.891693,101.338806 395.381531,114.407158 394.510895,127.450493 
	C394.027649,134.689682 392.875336,141.884216 391.931274,149.495972 
M323.654572,133.849213 
	C323.773071,127.708183 324.119934,121.557182 323.852570,115.432999 
	C323.784058,113.863495 321.997681,111.363922 320.613464,111.061165 
	C317.504486,110.381180 317.124786,112.974884 316.946716,115.546333 
	C316.399384,123.450279 315.560730,131.335281 315.106842,139.243240 
	C315.033264,140.525803 316.209473,142.880768 317.042633,142.992645 
	C318.483673,143.186111 320.803558,142.440552 321.500031,141.313492 
	C322.664917,139.428360 322.842560,136.933105 323.654572,133.849213 
M344.982300,108.614990 
	C344.828247,110.590378 344.372742,112.606064 344.629395,114.526558 
	C344.792236,115.744827 346.014832,116.821449 346.762177,117.961594 
	C347.828644,117.148102 349.518402,116.522491 349.832031,115.482063 
	C350.488281,113.304855 350.694794,110.894630 350.575043,108.606834 
	C350.440216,106.030037 353.663696,101.938980 349.117371,101.177216 
	C344.644318,100.427742 346.276764,105.408684 344.982300,108.614990 
z"/>
<path fill="#034CAC" opacity="1.000000" stroke="none" 
	d="
M239.687103,133.099548 
	C237.789413,132.356812 235.891739,131.614059 233.691605,130.690796 
	C233.745102,114.883652 234.090546,99.256752 234.465576,83.630562 
	C234.543869,80.368095 235.931122,78.486572 239.525070,78.155495 
	C247.279526,77.441139 255.004868,76.410927 263.527191,75.509163 
	C273.415497,76.306610 282.518707,77.104836 291.621948,77.903053 
	C295.863098,78.638023 300.100616,79.394890 304.346649,80.100418 
	C307.260345,80.584564 308.753815,82.005898 307.738861,85.896057 
	C307.365326,88.632362 307.091095,90.592804 306.902557,92.561462 
	C305.411652,108.130020 303.937042,123.700134 302.457458,139.269775 
	C284.998230,142.910431 267.840973,140.847321 250.800217,136.544327 
	C249.838959,136.301590 248.858078,136.136444 247.401306,135.455719 
	C247.070099,130.317719 247.250748,125.659843 247.366486,121.000351 
	C247.424896,118.649384 247.585220,115.602783 244.244278,116.129326 
	C242.722366,116.369186 240.756622,118.913132 240.443527,120.670547 
	C239.720337,124.729622 239.883469,128.946609 239.687103,133.099548 
M250.071930,80.739601 
	C240.029678,84.975243 236.004547,92.428101 238.304184,102.555496 
	C238.842880,104.927895 239.713257,107.689987 242.637222,106.594284 
	C243.975143,106.092918 245.261856,103.080902 245.096024,101.348808 
	C244.350861,93.565834 245.235016,91.572006 251.807678,87.469696 
	C253.109253,86.657318 254.515305,84.708069 254.423813,83.383171 
	C254.351395,82.334282 252.058990,81.438690 250.071930,80.739601 
M278.346497,111.182571 
	C277.744965,110.135941 277.236298,108.258461 276.526642,108.179146 
	C272.305664,107.707336 269.853058,106.087715 270.171082,101.356956 
	C270.218781,100.647507 268.406494,99.239166 267.429352,99.215889 
	C266.645081,99.197212 265.552338,100.667381 265.095337,101.698044 
	C264.666321,102.665565 264.891266,103.923073 264.892761,103.895988 
	C262.408112,105.242638 260.673767,106.182632 258.939392,107.122620 
	C260.852966,108.942657 262.766541,110.762688 263.893921,111.834953 
	C265.523254,114.812157 266.761902,117.075455 268.000549,119.338753 
	C269.385040,117.471130 270.769562,115.603508 272.378906,113.432587 
	C273.727386,113.065071 275.938812,112.462379 278.346497,111.182571 
z"/>
<path fill="#070808" opacity="1.000000" stroke="none" 
	d="
M190.883362,387.785004 
	C190.578796,389.651581 190.283783,391.519745 189.967697,393.384369 
	C189.308884,397.270538 188.638916,401.154877 187.653015,405.653168 
	C187.214066,407.187317 187.095657,408.108215 186.977249,409.029144 
	C185.140640,408.972351 183.099426,409.410156 181.511139,408.753113 
	C178.457230,407.489746 175.659836,405.606262 172.603882,403.640594 
	C173.964706,402.687134 175.497192,402.116699 176.987000,401.450714 
	C181.062225,399.628967 183.294556,393.636108 181.706573,388.872986 
	C177.566345,385.272919 173.489304,381.594299 169.216873,378.158630 
	C168.585007,377.650513 166.983490,378.127167 165.908920,378.427979 
	C160.528900,379.934204 155.174973,381.533600 149.106689,383.040161 
	C147.610092,382.633728 146.818665,382.287415 146.027252,381.941101 
	C131.899612,370.961304 117.795486,359.951111 103.631676,349.018188 
	C98.645767,345.169617 96.684708,340.181000 98.045792,334.148254 
	C99.208420,328.995087 102.322662,325.340271 108.005379,324.424988 
	C117.802132,332.303711 127.275208,339.926025 136.872314,347.388885 
	C152.873840,359.831848 168.934967,372.198578 185.034775,384.514038 
	C186.533691,385.660614 188.489578,386.209808 190.578674,387.229919 
	C190.924057,387.423462 190.883362,387.785004 190.883362,387.785004 
M130.355011,358.132202 
	C135.898956,362.404297 141.442886,366.676392 147.356995,371.233734 
	C148.180984,366.476013 139.319168,358.116364 128.134872,352.453400 
	C128.860489,354.830750 129.307678,356.295929 130.355011,358.132202 
M117.540558,348.921570 
	C117.969261,348.030518 118.921371,346.996460 118.724602,346.276306 
	C118.215935,344.414642 117.549782,342.338562 116.250023,341.051453 
	C115.522720,340.331207 112.517044,340.477783 112.103577,341.169556 
	C111.209412,342.665497 110.445984,345.440582 111.230385,346.458496 
	C112.418747,348.000580 114.970703,348.491882 117.540558,348.921570 
z"/>
<path fill="#F6F7F7" opacity="1.000000" stroke="none" 
	d="
M302.450348,139.784271 
	C303.937042,123.700134 305.411652,108.130020 306.902557,92.561462 
	C307.091095,90.592804 307.365326,88.632362 307.787659,86.314529 
	C309.695221,86.967186 311.415039,87.973434 313.514618,88.980606 
	C312.786652,102.336739 311.698486,115.693596 310.559967,129.046173 
	C310.194855,133.328247 309.696716,137.598999 309.309448,142.230743 
	C304.789886,187.820999 300.220306,233.055435 295.726318,278.747467 
	C295.801880,279.205048 295.764832,279.300446 295.517914,279.495911 
	C295.267487,280.445892 295.264008,281.200378 295.260529,281.954895 
	C294.860840,283.416687 294.461182,284.878510 294.163574,287.096985 
	C294.249420,288.890869 294.233185,289.928040 294.216919,290.965240 
	C293.695923,295.200287 293.174927,299.435333 292.538391,304.362122 
	C292.354187,306.024597 292.285522,306.995300 292.216858,307.966034 
	C291.201904,315.390839 290.186981,322.815613 288.754913,330.840820 
	C287.540924,332.626373 286.744049,333.811523 285.947205,334.996674 
	C285.193481,334.388489 284.439758,333.780304 283.361633,332.808716 
	C283.033997,332.275940 283.030731,332.106567 283.075989,331.615417 
	C283.063995,329.813690 283.003510,328.333740 282.943054,326.853821 
	C283.744843,319.349091 284.546631,311.844360 285.480621,303.653625 
	C285.670135,301.989166 285.727448,301.010773 285.784790,300.032349 
	C286.326599,295.795624 286.868408,291.558868 287.511475,286.644958 
	C287.670044,284.989319 287.727417,284.010834 287.784790,283.032349 
	C287.845276,282.769714 287.905762,282.507111 287.914215,281.839874 
	C290.203278,260.327606 292.679871,239.233932 294.850983,218.108871 
	C297.515137,192.185898 299.924011,166.236649 302.450348,139.784271 
M285.458038,330.403229 
	C285.515900,330.174072 285.573761,329.944885 285.631561,329.715698 
	C285.487457,329.863892 285.343353,330.012085 285.458038,330.403229 
z"/>
<path fill="#090909" opacity="1.000000" stroke="none" 
	d="
M45.017017,312.054016 
	C46.435417,312.219269 47.853817,312.384521 49.645241,312.283661 
	C50.018269,312.017548 49.909260,312.026062 49.827408,312.349274 
	C50.168297,312.726410 50.591034,312.780365 51.013771,312.834290 
	C52.919674,313.348175 54.825581,313.862061 56.087635,314.202332 
	C55.181030,317.819336 53.951469,321.232513 53.505318,324.745178 
	C50.438545,348.890259 57.080288,369.698792 76.380066,385.132538 
	C96.040558,400.854767 118.155853,403.141571 141.587326,394.594604 
	C142.035599,394.431091 142.390991,394.012939 143.233215,393.329651 
	C144.126846,392.903748 144.576965,392.861725 145.027100,392.819702 
	C145.767151,392.869324 146.507187,392.918945 148.017731,392.921936 
	C150.527527,392.593475 152.266800,392.311737 154.006088,392.029999 
	C154.006088,392.029999 154.458282,391.978241 154.701172,392.299316 
	C155.361847,393.459351 155.779648,394.298309 156.197433,395.137238 
	C157.243835,398.811157 155.417801,400.232971 152.125259,401.529816 
	C125.223282,412.126038 98.956680,411.863678 74.224174,395.958618 
	C50.939354,380.984497 42.304539,358.355133 43.448536,331.488312 
	C43.707783,325.399963 44.996933,319.355438 45.434776,312.894653 
	C45.057541,312.498535 45.017017,312.054016 45.017017,312.054016 
z"/>
<path fill="#0B0F10" opacity="1.000000" stroke="none" 
	d="
M378.041199,83.439911 
	C360.012878,83.423973 341.990204,82.982536 323.622375,82.376724 
	C323.473877,77.513016 325.743378,76.064888 330.516144,76.333046 
	C345.431274,77.171051 360.374817,77.501717 375.306519,78.051140 
	C376.102448,78.080421 376.890930,78.312653 378.046875,78.513733 
	C378.046875,80.118385 378.046875,81.566391 378.041199,83.439911 
z"/>
<path fill="#0049AB" opacity="1.000000" stroke="none" 
	d="
M181.263428,388.879120 
	C183.294556,393.636108 181.062225,399.628967 176.987000,401.450714 
	C175.497192,402.116699 173.964706,402.687134 172.222107,403.565125 
	C168.257263,405.578583 164.522018,407.328125 160.116211,409.067352 
	C159.251511,409.036774 159.057343,409.016510 158.863159,408.996216 
	C158.946274,407.216797 158.971680,405.432465 159.123215,403.658905 
	C159.603546,398.036682 163.057724,395.163879 168.882935,393.901184 
	C169.657150,393.582367 169.788406,393.289856 169.919647,392.997375 
	C169.919647,392.997375 170.050644,392.952209 170.292053,392.814575 
	C170.981430,392.445923 171.429398,392.214874 171.877365,391.983826 
	C173.663544,391.644287 175.449707,391.304749 177.880096,390.793640 
	C178.996689,390.081665 179.469101,389.541229 179.941498,389.000793 
	C180.234421,388.962280 180.527359,388.923767 181.263428,388.879120 
z"/>
<path fill="#090909" opacity="1.000000" stroke="none" 
	d="
M291.656860,77.502327 
	C282.518707,77.104836 273.415497,76.306610 264.174500,75.441223 
	C263.816437,75.364090 263.596130,75.354126 263.375824,75.344154 
	C263.426422,75.382858 263.477020,75.421562 263.527618,75.460266 
	C264.555969,69.852928 268.689636,70.240105 272.807159,70.698227 
	C278.190826,71.297218 283.566925,71.964142 288.946594,72.599091 
	C291.779266,72.933411 292.515747,74.540489 291.656860,77.502327 
z"/>
<path fill="#0B0F10" opacity="1.000000" stroke="none" 
	d="
M60.999756,298.999878 
	C56.817848,298.217255 52.635944,297.434631 47.958130,296.948151 
	C47.275188,297.173553 47.088146,297.102783 46.901100,297.031982 
	C48.396004,294.165741 49.890907,291.299500 51.751301,287.732483 
	C54.714287,288.301178 58.339893,288.997009 62.486813,289.792938 
	C61.960030,292.828979 61.492813,295.521698 61.012794,298.607239 
	C61.000000,299.000000 60.999756,298.999878 60.999756,298.999878 
z"/>
<path fill="#242F3E" opacity="1.000000" stroke="none" 
	d="
M189.535339,304.031555 
	C173.275970,308.441132 156.622681,312.819855 139.923706,317.016846 
	C131.251999,319.196289 122.499527,321.054443 113.358398,323.027710 
	C122.078117,320.535492 131.199539,317.981750 140.373184,315.631958 
	C155.137726,311.850067 169.933365,308.189148 184.726562,304.520355 
	C186.153290,304.166504 187.655365,304.116425 189.535339,304.031555 
z"/>
<path fill="#242F3E" opacity="1.000000" stroke="none" 
	d="
M50.023888,312.071930 
	C50.927738,308.493042 48.840115,304.167877 52.397976,301.196533 
	C53.342041,300.408112 54.773479,300.203247 55.981140,299.730469 
	C55.735165,300.888184 55.489182,302.045929 54.834587,303.650726 
	C54.589188,304.508667 54.752399,304.919525 54.915611,305.330383 
	C55.107304,306.290741 55.788189,307.623596 55.395641,308.139038 
	C54.367317,309.489380 52.870468,310.482880 51.006065,311.725281 
	C50.270939,311.896667 50.090099,311.961365 49.909260,312.026062 
	C49.909260,312.026062 50.018269,312.017548 50.023888,312.071930 
z"/>
<path fill="#034CAC" opacity="1.000000" stroke="none" 
	d="
M227.821991,264.315796 
	C227.877121,272.400818 227.780762,280.867767 227.421188,289.651093 
	C227.328812,281.544220 227.499649,273.121002 227.821991,264.315796 
z"/>
<path fill="#E1E1E1" opacity="1.000000" stroke="none" 
	d="
M146.011261,382.217957 
	C146.818665,382.287415 147.610092,382.633728 148.716736,383.100769 
	C149.243347,384.609924 149.454773,385.998383 149.855392,388.629486 
	C147.720901,387.013275 146.318878,385.951691 144.943298,384.453400 
	C144.969727,384.016693 145.167099,383.808685 145.167099,383.808685 
	C145.443146,383.370728 145.719208,382.932800 146.011261,382.217957 
z"/>
<path fill="#E1E1E1" opacity="1.000000" stroke="none" 
	d="
M154.040207,391.675110 
	C152.266800,392.311737 150.527527,392.593475 148.377808,392.829834 
	C150.688354,389.896332 152.737671,389.404968 154.040207,391.675110 
z"/>
<path fill="#E1E1E1" opacity="1.000000" stroke="none" 
	d="
M145.008118,392.458801 
	C144.576965,392.861725 144.126846,392.903748 143.333282,392.971436 
	C143.225784,391.450134 143.461716,389.903168 143.697632,388.356201 
	C144.128143,388.407715 144.558640,388.459229 144.989151,388.510742 
	C144.989151,389.706451 144.989151,390.902191 145.008118,392.458801 
z"/>
<path fill="#F5F5F5" opacity="1.000000" stroke="none" 
	d="
M156.640503,395.114746 
	C155.779648,394.298309 155.361847,393.459351 154.926971,392.327576 
	C155.948029,392.755005 156.986145,393.475311 158.016327,394.594727 
	C158.008362,394.993866 157.969498,395.043518 157.969498,395.043518 
	C157.674194,395.059784 157.378876,395.076019 156.640503,395.114746 
z"/>
<path fill="#024BAC" opacity="1.000000" stroke="none" 
	d="
M323.333252,367.230316 
	C325.140839,367.109192 327.260132,367.217896 329.669556,367.579559 
	C327.854767,367.708405 325.749908,367.584290 323.333252,367.230316 
z"/>
<path fill="#EFEFEF" opacity="1.000000" stroke="none" 
	d="
M61.162201,307.266724 
	C60.614838,306.326569 60.385769,305.461029 60.156704,304.595490 
	C60.646759,304.543671 61.136818,304.491852 61.626873,304.440063 
	C61.578083,305.407135 61.529289,306.374237 61.162201,307.266724 
z"/>
<path fill="#0049AB" opacity="1.000000" stroke="none" 
	d="
M187.318298,409.058899 
	C187.095657,408.108215 187.214066,407.187317 187.608658,406.034180 
	C188.423279,406.196716 188.961731,406.591431 189.844574,407.037323 
	C189.345749,407.755188 188.502533,408.421906 187.318298,409.058899 
z"/>
<path fill="#F5F5F5" opacity="1.000000" stroke="none" 
	d="
M158.554718,408.986511 
	C159.057343,409.016510 159.251511,409.036774 159.729630,409.128784 
	C159.036087,409.357697 158.058563,409.514893 157.040436,409.336121 
	C156.999802,409.000122 157.011734,408.987793 157.011734,408.987793 
	C157.423248,408.984131 157.834747,408.980499 158.554718,408.986511 
z"/>
<path fill="#EFEFEF" opacity="1.000000" stroke="none" 
	d="
M44.989632,311.732544 
	C45.017017,312.054016 45.057541,312.498535 45.104446,312.716736 
	C44.518650,312.271484 43.885944,311.608063 43.253239,310.944611 
	C43.822906,311.100098 44.392574,311.255585 44.989632,311.732544 
z"/>
<path fill="#F6F7F7" opacity="1.000000" stroke="none" 
	d="
M314.512177,83.316376 
	C314.637512,84.496277 314.524048,85.953316 314.216919,87.719803 
	C314.106628,86.550674 314.190002,85.072098 314.512177,83.316376 
z"/>
<path fill="#024BAC" opacity="1.000000" stroke="none" 
	d="
M371.204285,321.670685 
	C371.109039,320.503387 371.222656,319.040375 371.581482,317.310303 
	C371.688812,318.487183 371.550964,319.931061 371.204285,321.670685 
z"/>
<path fill="#EFEFEF" opacity="1.000000" stroke="none" 
	d="
M60.999878,298.999969 
	C61.588520,299.386078 62.177284,299.772247 62.766052,300.158386 
	C62.346092,300.570618 61.926128,300.982819 61.506165,301.395050 
	C61.320564,300.811981 61.134964,300.228943 60.974556,299.322876 
	C60.999756,298.999878 61.000000,299.000000 60.999878,298.999969 
z"/>
<path fill="#024BAC" opacity="1.000000" stroke="none" 
	d="
M373.287354,304.916931 
	C373.168823,303.698608 373.249146,302.151855 373.581360,300.320648 
	C373.717590,301.553619 373.601868,303.071106 373.287354,304.916931 
z"/>
<path fill="#024BAC" opacity="1.000000" stroke="none" 
	d="
M370.211487,329.674286 
	C370.110016,328.502533 370.224426,327.038544 370.584351,325.307220 
	C370.695679,326.487274 370.561493,327.934662 370.211487,329.674286 
z"/>
<path fill="#024BAC" opacity="1.000000" stroke="none" 
	d="
M367.230774,352.637634 
	C367.100616,351.453674 367.222626,350.008087 367.588928,348.299103 
	C367.716431,349.482483 367.599670,350.929260 367.230774,352.637634 
z"/>
<path fill="#024BAC" opacity="1.000000" stroke="none" 
	d="
M372.308044,312.962830 
	C372.177277,311.731262 372.252960,310.170502 372.581726,308.322632 
	C372.728058,309.568237 372.621277,311.100922 372.308044,312.962830 
z"/>
<path fill="#024BAC" opacity="1.000000" stroke="none" 
	d="
M368.297546,344.932098 
	C368.172363,343.707916 368.251556,342.156403 368.583130,340.319305 
	C368.724304,341.557404 368.613098,343.081085 368.297546,344.932098 
z"/>
<path fill="#EFEFEF" opacity="1.000000" stroke="none" 
	d="
M59.271248,311.207336 
	C59.320007,310.440430 59.547058,309.899811 59.839695,309.397400 
	C59.859833,309.362854 60.369877,309.613647 60.652092,309.731689 
	C60.256466,310.302032 59.860840,310.872406 59.271248,311.207336 
z"/>
<path fill="#F5F5F5" opacity="1.000000" stroke="none" 
	d="
M156.993469,409.006165 
	C156.471359,408.760468 155.943100,408.528656 155.459457,408.225647 
	C155.411972,408.195862 155.638535,407.728790 155.737885,407.464691 
	C156.140091,407.776459 156.542313,408.088226 156.978119,408.693909 
	C157.011734,408.987793 156.999802,409.000122 156.993469,409.006165 
z"/>
<path fill="#EFEFEF" opacity="1.000000" stroke="none" 
	d="
M46.669037,297.190582 
	C47.088146,297.102783 47.275188,297.173553 47.760075,297.208679 
	C47.746246,297.683289 47.434566,298.193512 47.122894,298.703735 
	C46.894257,298.252228 46.665615,297.800690 46.669037,297.190582 
z"/>
<path fill="#024BAC" opacity="1.000000" stroke="none" 
	d="
M337.395111,367.896118 
	C338.173920,367.563843 339.312012,367.295349 340.821655,367.049500 
	C340.046936,367.368011 338.900665,367.663971 337.395111,367.896118 
z"/>
<path fill="#024BAC" opacity="1.000000" stroke="none" 
	d="
M369.328613,337.019836 
	C369.184265,336.080231 369.257477,334.836151 369.579407,333.317261 
	C369.734100,334.266754 369.640106,335.491058 369.328613,337.019836 
z"/>
<path fill="#0049AB" opacity="1.000000" stroke="none" 
	d="
M289.291992,371.910248 
	C289.536194,371.431396 290.073425,370.944458 290.792175,370.663513 
	C290.510803,371.213745 290.047943,371.557953 289.291992,371.910248 
z"/>
<path fill="#0049AB" opacity="1.000000" stroke="none" 
	d="
M218.304810,397.886108 
	C218.509811,397.290466 219.020294,396.692932 219.859344,396.088623 
	C219.662048,396.682617 219.136185,397.283417 218.304810,397.886108 
z"/>
<path fill="#024BAC" opacity="1.000000" stroke="none" 
	d="
M202.408173,403.430176 
	C202.583420,403.038239 202.996750,402.628662 203.605743,402.123627 
	C203.416367,402.489624 203.031311,402.951111 202.408173,403.430176 
z"/>
<path fill="#F9F9F9" opacity="1.000000" stroke="none" 
	d="
M179.645645,389.019897 
	C179.469101,389.541229 178.996689,390.081665 178.254303,390.659485 
	C178.439468,390.144287 178.894638,389.591644 179.645645,389.019897 
z"/>
<path fill="#024BAC" opacity="1.000000" stroke="none" 
	d="
M243.408173,388.430176 
	C243.583405,388.038239 243.996750,387.628662 244.605743,387.123627 
	C244.416367,387.489624 244.031311,387.951111 243.408173,388.430176 
z"/>
<path fill="#0049AB" opacity="1.000000" stroke="none" 
	d="
M259.304657,382.895081 
	C259.508759,382.301483 260.018494,381.699066 260.858063,381.089233 
	C260.662018,381.683289 260.136139,382.284760 259.304657,382.895081 
z"/>
<path fill="#0049AB" opacity="1.000000" stroke="none" 
	d="
M270.304901,378.890869 
	C270.509979,378.293549 271.020721,377.695801 271.860168,377.093567 
	C271.662781,377.689484 271.136688,378.289978 270.304901,378.890869 
z"/>
<path fill="#0049AB" opacity="1.000000" stroke="none" 
	d="
M281.304932,374.890869 
	C281.509979,374.293549 282.020752,373.695831 282.860168,373.093567 
	C282.662781,373.689514 282.136688,374.290009 281.304932,374.890869 
z"/>
<path fill="#0049AB" opacity="1.000000" stroke="none" 
	d="
M229.304932,393.890869 
	C229.510010,393.293579 230.020752,392.695831 230.860199,392.093567 
	C230.662781,392.689514 230.136688,393.290009 229.304932,393.890869 
z"/>
<path fill="#0049AB" opacity="1.000000" stroke="none" 
	d="
M292.303864,370.883453 
	C292.501556,370.281372 293.003662,369.686249 293.830566,369.080811 
	C293.639679,369.677155 293.123993,370.283783 292.303864,370.883453 
z"/>
<path fill="#024BAC" opacity="1.000000" stroke="none" 
	d="
M343.355743,366.898163 
	C343.826477,366.564972 344.629730,366.290100 345.769348,366.027924 
	C345.299896,366.345886 344.494049,366.651154 343.355743,366.898163 
z"/>
<path fill="#024BAC" opacity="1.000000" stroke="none" 
	d="
M318.219391,366.248260 
	C318.841034,366.125916 319.680206,366.246429 320.741882,366.597778 
	C320.121918,366.716125 319.279419,366.603607 318.219391,366.248260 
z"/>
<path fill="#024BAC" opacity="1.000000" stroke="none" 
	d="
M347.336121,365.918396 
	C347.767426,365.577667 348.515320,365.281555 349.582458,364.978058 
	C349.152039,365.301422 348.402405,365.632202 347.336121,365.918396 
z"/>
<path fill="#024BAC" opacity="1.000000" stroke="none" 
	d="
M314.328369,365.194275 
	C314.922150,365.106873 315.735870,365.247070 316.759735,365.618317 
	C316.162659,365.706879 315.355499,365.564362 314.328369,365.194275 
z"/>
<path fill="#F5F5F5" opacity="1.000000" stroke="none" 
	d="
M158.030060,394.971008 
	C158.473724,395.094666 158.895676,395.241241 159.317627,395.387817 
	C158.958359,395.404419 158.599106,395.421051 158.104675,395.240601 
	C157.969498,395.043518 158.008362,394.993866 158.030060,394.971008 
z"/>
<path fill="#F9F9F9" opacity="1.000000" stroke="none" 
	d="
M171.604340,391.992188 
	C171.429398,392.214874 170.981430,392.445923 170.272888,392.747986 
	C170.451996,392.546204 170.891647,392.273346 171.604340,391.992188 
z"/>
<path fill="#EFEFEF" opacity="1.000000" stroke="none" 
	d="
M58.716827,313.607605 
	C58.845722,313.444489 59.068874,313.420441 59.292023,313.396362 
	C59.131714,313.513123 58.971397,313.629883 58.716827,313.607605 
z"/>
<path fill="#F5F5F5" opacity="1.000000" stroke="none" 
	d="
M152.532623,405.553009 
	C152.473984,405.588226 152.591263,405.517792 152.532623,405.553009 
z"/>
<path fill="#F9F9F9" opacity="1.000000" stroke="none" 
	d="
M169.727081,393.082428 
	C169.788406,393.289856 169.657150,393.582367 169.267899,393.844666 
	C169.119339,393.545776 169.294205,393.330109 169.727081,393.082428 
z"/>
<path fill="#242F3E" opacity="1.000000" stroke="none" 
	d="
M112.877113,323.020630 
	C112.888428,323.101624 112.761726,323.274292 112.617645,323.601349 
	C112.616486,323.528931 112.662766,323.314453 112.877113,323.020630 
z"/>
<path fill="#EFEFEF" opacity="1.000000" stroke="none" 
	d="
M49.827408,312.349274 
	C50.090099,311.961365 50.270939,311.896667 50.726795,311.917816 
	C51.001816,312.003662 51.024876,312.418732 51.019325,312.626526 
	C50.591034,312.780365 50.168297,312.726410 49.827408,312.349274 
z"/>
<path fill="#E1E1E1" opacity="1.000000" stroke="none" 
	d="
M144.867096,384.116821 
	C144.676743,383.964844 144.589020,383.712708 144.501282,383.460602 
	C144.640137,383.484711 144.778976,383.508850 145.042465,383.670837 
	C145.167099,383.808685 144.969727,384.016693 144.867096,384.116821 
z"/>
<path fill="#EFEFEF" opacity="1.000000" stroke="none" 
	d="
M54.945671,304.965729 
	C54.752399,304.919525 54.589188,304.508667 54.703552,303.983582 
	C54.979332,304.113251 54.977531,304.357147 54.945671,304.965729 
z"/>
<path fill="#F6F7F7" opacity="1.000000" stroke="none" 
	d="
M314.052216,336.277100 
	C313.400116,335.585785 312.100677,334.780609 312.199066,334.221344 
	C312.940094,330.009216 311.945892,327.057068 307.451752,325.729614 
	C306.988464,325.592712 306.695343,322.548828 307.049011,322.380676 
	C308.580780,321.652557 310.382172,321.491608 312.627838,321.007507 
	C313.008636,319.944305 313.694183,318.030304 314.940125,315.966034 
	C315.500549,315.815735 315.962494,315.719635 315.962494,315.719635 
	C316.639587,316.166443 317.899170,316.606567 317.904388,317.061157 
	C317.961945,322.064148 319.903351,325.469269 325.087769,326.643219 
	C325.408020,326.715759 325.773315,328.617004 325.399750,329.229828 
	C324.895966,330.056213 323.716705,330.893402 322.788330,330.939423 
	C321.395172,331.008453 319.968231,330.394653 318.564270,330.073212 
	C317.845428,331.998169 317.166016,333.817413 315.906921,335.883301 
	C314.902222,336.179016 314.477203,336.228058 314.052216,336.277100 
z"/>
<path fill="#F6F7F7" opacity="1.000000" stroke="none" 
	d="
M239.862503,289.796204 
	C239.488739,292.878967 239.152100,295.519836 238.768539,298.528931 
	C234.890900,296.920471 231.713623,295.457855 232.660019,290.201843 
	C233.331512,286.472534 233.054626,282.567596 233.142075,278.739716 
	C233.197266,276.324432 233.143005,273.743958 236.458374,273.685669 
	C239.900543,273.625122 240.406158,276.207916 240.358917,278.875671 
	C240.297028,282.370178 240.060852,285.861542 239.862503,289.796204 
z"/>
<path fill="#0B0F10" opacity="1.000000" stroke="none" 
	d="
M245.977463,315.005768 
	C240.720551,312.692230 236.054489,309.610596 232.565460,304.923218 
	C232.237946,304.483215 231.310822,304.541656 230.779099,304.191162 
	C229.515594,303.358368 228.322342,302.419006 227.100708,301.522675 
	C227.778870,300.719940 228.506226,299.208069 229.125748,299.251038 
	C230.802811,299.367371 233.396133,299.675720 233.914764,300.741058 
	C236.019211,305.063782 241.118774,305.254639 243.775085,308.591370 
	C244.878769,309.977753 245.886063,311.440948 246.908356,313.496857 
	C246.578827,314.418274 246.278137,314.712006 245.977463,315.005768 
z"/>
<path fill="#0D2340" opacity="1.000000" stroke="none" 
	d="
M253.291306,364.245178 
	C247.804398,366.770966 242.057098,369.199219 236.227280,371.409851 
	C226.916412,374.940460 217.556198,378.341492 208.202560,381.758240 
	C206.714645,382.301758 205.151993,382.640717 203.623886,383.074249 
	C203.479553,382.643799 203.335205,382.213379 203.190872,381.782959 
	C219.791870,375.871948 236.392883,369.960938 253.291306,364.245178 
z"/>
<path fill="#0D2340" opacity="1.000000" stroke="none" 
	d="
M300.343384,345.639404 
	C301.080200,347.014893 301.817017,348.390411 302.245483,349.190277 
	C300.169708,349.190277 298.690277,348.821411 297.493622,349.247223 
	C285.161469,353.635620 272.878143,358.161041 260.572144,362.623322 
	C258.943542,363.213837 257.264282,363.664703 255.608505,364.180237 
	C255.472122,363.777710 255.335739,363.375183 255.199371,362.972626 
	C269.888885,357.549774 284.578369,352.126923 299.655884,346.325409 
	C300.043915,345.946747 300.343384,345.639404 300.343384,345.639404 
z"/>
<path fill="#F5F5F5" opacity="1.000000" stroke="none" 
	d="
M256.054993,311.104492 
	C256.687042,309.325653 257.114380,307.432373 258.022491,305.807861 
	C258.636566,304.709290 259.927460,303.989044 260.915588,303.099579 
	C261.736023,304.314911 263.331787,305.603912 263.224640,306.731079 
	C262.954376,309.574066 261.917114,312.344147 261.060608,315.541443 
	C260.933990,315.939392 260.796021,315.861633 260.796021,315.861633 
	C259.762543,314.979889 258.729095,314.098145 257.317139,312.846191 
	C256.644104,312.018799 256.349548,311.561646 256.054993,311.104492 
z"/>
<path fill="#0B0F10" opacity="1.000000" stroke="none" 
	d="
M252.715424,318.721863 
	C253.155045,318.523041 253.711456,318.044250 254.015228,318.171021 
	C255.927368,318.968903 257.783417,319.901367 259.657990,320.789368 
	C258.790985,321.559387 257.981018,322.895752 257.045990,322.989868 
	C254.561707,323.239929 251.874908,323.144379 252.492172,319.027588 
	C252.724457,318.700623 252.715424,318.721863 252.715424,318.721863 
z"/>
<path fill="#070808" opacity="1.000000" stroke="none" 
	d="
M252.799500,318.278687 
	C252.715424,318.721863 252.724457,318.700623 252.743790,318.691589 
	C250.475693,317.709930 248.188263,316.737305 245.939148,315.385223 
	C246.278137,314.712006 246.578827,314.418274 246.876862,313.919647 
	C250.646729,312.507996 252.967316,313.418579 252.799500,318.278687 
z"/>
<path fill="#0D2340" opacity="1.000000" stroke="none" 
	d="
M191.248245,387.731262 
	C190.883362,387.785004 190.924057,387.423462 190.955322,387.244568 
	C194.320908,385.565399 197.655197,384.065094 200.989502,382.564789 
	C201.203262,383.069458 201.417038,383.574127 201.630814,384.078796 
	C198.291580,385.278381 194.952362,386.477966 191.248245,387.731262 
z"/>
<path fill="#E1E1E1" opacity="1.000000" stroke="none" 
	d="
M286.124969,335.317566 
	C286.744049,333.811523 287.540924,332.626373 288.599182,331.212524 
	C288.261749,332.674805 290.773407,336.075104 286.124969,335.317566 
z"/>
<path fill="#E1E1E1" opacity="1.000000" stroke="none" 
	d="
M282.747284,327.153168 
	C283.003510,328.333740 283.063995,329.813690 282.882263,331.487915 
	C282.448547,331.438538 282.238708,331.211823 282.010559,331.002045 
	C282.190887,329.818878 282.371216,328.635681 282.747284,327.153168 
z"/>
<path fill="#034CAC" opacity="1.000000" stroke="none" 
	d="
M247.045532,304.394043 
	C247.287476,304.790558 247.285797,305.184998 247.255539,305.577271 
	C247.254700,305.588287 246.948898,305.575836 246.785309,305.574341 
	C246.789505,305.180115 246.793701,304.785919 247.045532,304.394043 
z"/>
<path fill="#024BAC" opacity="1.000000" stroke="none" 
	d="
M294.432312,290.745056 
	C294.233185,289.928040 294.249420,288.890869 294.299103,287.465576 
	C294.437592,288.226593 294.542664,289.375732 294.432312,290.745056 
z"/>
<path fill="#034CAC" opacity="1.000000" stroke="none" 
	d="
M273.465698,324.608551 
	C273.349640,325.058167 273.066406,325.333801 272.765228,325.588196 
	C272.757568,325.594696 272.552551,325.367493 272.439545,325.249298 
	C272.725067,324.976776 273.010620,324.704285 273.465698,324.608551 
z"/>
<path fill="#034CAC" opacity="1.000000" stroke="none" 
	d="
M268.393921,321.954651 
	C268.790436,321.712677 269.184906,321.714355 269.577148,321.744629 
	C269.588196,321.745453 269.575745,322.051208 269.574219,322.214813 
	C269.179993,322.210632 268.785797,322.206451 268.393921,321.954651 
z"/>
<path fill="#034CAC" opacity="1.000000" stroke="none" 
	d="
M255.866089,310.934387 
	C256.349548,311.561646 256.644104,312.018799 257.042358,312.739258 
	C256.656464,312.256470 256.166809,311.510406 255.866089,310.934387 
z"/>
<path fill="#034CAC" opacity="1.000000" stroke="none" 
	d="
M242.884644,301.704315 
	C242.593796,301.786835 242.207657,301.696411 242.124451,301.486084 
	C242.056702,301.314850 242.351669,301.000153 242.485809,300.749054 
	C242.630646,300.992554 242.775467,301.236053 242.884644,301.704315 
z"/>
<path fill="#034CAC" opacity="1.000000" stroke="none" 
	d="
M285.547028,300.312439 
	C285.727448,301.010773 285.670135,301.989166 285.364960,303.251465 
	C285.181152,302.554382 285.245209,301.573486 285.547028,300.312439 
z"/>
<path fill="#034CAC" opacity="1.000000" stroke="none" 
	d="
M287.546997,283.312469 
	C287.727417,284.010834 287.670044,284.989319 287.364838,286.251770 
	C287.181061,285.554718 287.245148,284.573639 287.546997,283.312469 
z"/>
<path fill="#024BAC" opacity="1.000000" stroke="none" 
	d="
M295.476379,281.689941 
	C295.264008,281.200378 295.267487,280.445892 295.529663,279.545715 
	C295.756317,280.075073 295.724304,280.750031 295.476379,281.689941 
z"/>
<path fill="#034CAC" opacity="1.000000" stroke="none" 
	d="
M264.115387,318.295776 
	C264.406189,318.213257 264.792328,318.303711 264.875458,318.513947 
	C264.943207,318.685242 264.648315,318.999908 264.514221,319.251007 
	C264.369415,319.007507 264.224579,318.764038 264.115387,318.295776 
z"/>
<path fill="#024BAC" opacity="1.000000" stroke="none" 
	d="
M292.453674,307.686707 
	C292.285522,306.995300 292.354187,306.024597 292.658875,304.761902 
	C292.826782,305.449127 292.758636,306.428253 292.453674,307.686707 
z"/>
<path fill="#034CAC" opacity="1.000000" stroke="none" 
	d="
M251.360382,307.895844 
	C251.636230,308.167419 251.749786,308.571075 251.806427,308.982544 
	C251.816193,309.053467 251.584030,309.157684 251.463593,309.246552 
	C251.368698,308.841217 251.273788,308.435883 251.360382,307.895844 
z"/>
<path fill="#034CAC" opacity="1.000000" stroke="none" 
	d="
M277.115387,328.295776 
	C277.406189,328.213257 277.792328,328.303680 277.875488,328.513947 
	C277.943237,328.685181 277.648346,328.999908 277.514252,329.251007 
	C277.369415,329.007507 277.224609,328.764038 277.115387,328.295776 
z"/>
<path fill="#034CAC" opacity="1.000000" stroke="none" 
	d="
M281.777740,331.180237 
	C282.238708,331.211823 282.448547,331.438538 282.833801,331.809692 
	C283.030731,332.106567 283.033997,332.275940 283.088806,332.694092 
	C282.608551,332.414703 282.076721,331.886536 281.777740,331.180237 
z"/>
<path fill="#024BAC" opacity="1.000000" stroke="none" 
	d="
M314.213013,336.456177 
	C314.477203,336.228058 314.902222,336.179016 315.648315,336.147888 
	C315.437561,336.322327 314.905670,336.478790 314.213013,336.456177 
z"/>
<path fill="#024BAC" opacity="1.000000" stroke="none" 
	d="
M315.870850,315.592590 
	C315.962494,315.719635 315.500549,315.815735 315.268799,315.772339 
	C315.213409,315.384613 315.460785,315.296814 315.870850,315.592590 
z"/>
<path fill="#034CAC" opacity="1.000000" stroke="none" 
	d="
M260.896057,315.869873 
	C260.993591,315.978516 261.129059,316.156677 261.264496,316.334808 
	C261.166931,316.276215 261.069366,316.217651 260.883911,316.010345 
	C260.796021,315.861633 260.933990,315.939392 260.896057,315.869873 
z"/>
<path fill="#0D2340" opacity="1.000000" stroke="none" 
	d="
M299.891083,346.097351 
	C299.552612,345.993439 299.366974,345.738983 299.181335,345.484497 
	C299.453339,345.421143 299.725342,345.357788 300.170349,345.466919 
	C300.343384,345.639404 300.043915,345.946747 299.891083,346.097351 
z"/>
<path fill="#F5F5F5" opacity="1.000000" stroke="none" 
	d="
M313.587402,226.683838 
	C313.060822,232.109528 312.523621,237.073364 312.169342,242.050217 
	C311.969818,244.853027 311.744659,247.889999 308.221649,247.848877 
	C304.244324,247.802444 304.863434,244.451508 305.100586,241.847198 
	C306.835602,222.796005 308.629791,203.750229 310.403046,184.702530 
	C311.220306,175.923996 312.092896,167.149933 312.811340,158.363297 
	C313.038483,155.585297 313.701752,153.093597 316.936859,153.365463 
	C320.461121,153.661636 320.094299,156.618790 319.861877,159.143646 
	C317.803101,181.505905 315.725372,203.866394 313.587402,226.683838 
z"/>
<path fill="#F6F7F7" opacity="1.000000" stroke="none" 
	d="
M239.755096,133.530197 
	C239.883469,128.946609 239.720337,124.729622 240.443527,120.670547 
	C240.756622,118.913132 242.722366,116.369186 244.244278,116.129326 
	C247.585220,115.602783 247.424896,118.649384 247.366486,121.000351 
	C247.250748,125.659843 247.070099,130.317719 246.996674,135.422913 
	C246.467255,148.798111 245.857941,161.726715 245.246170,174.655182 
	C245.214783,175.318466 245.411209,176.172623 245.074829,176.608841 
	C243.896454,178.136917 242.531067,179.520782 241.236694,180.959412 
	C240.181900,179.389114 238.202255,177.805588 238.224533,176.250732 
	C238.355148,167.128891 238.985764,158.015152 239.380844,148.895782 
	C239.596405,143.920425 239.679977,138.939346 239.755096,133.530197 
z"/>
<path fill="#F9F9F9" opacity="1.000000" stroke="none" 
	d="
M323.545166,134.271942 
	C322.842560,136.933105 322.664917,139.428360 321.500031,141.313492 
	C320.803558,142.440552 318.483673,143.186111 317.042633,142.992645 
	C316.209473,142.880768 315.033264,140.525803 315.106842,139.243240 
	C315.560730,131.335281 316.399384,123.450279 316.946716,115.546333 
	C317.124786,112.974884 317.504486,110.381180 320.613464,111.061165 
	C321.997681,111.363922 323.784058,113.863495 323.852570,115.432999 
	C324.119934,121.557182 323.773071,127.708183 323.545166,134.271942 
z"/>
<path fill="#F6F7F7" opacity="1.000000" stroke="none" 
	d="
M345.016266,108.190903 
	C346.276764,105.408684 344.644318,100.427742 349.117371,101.177216 
	C353.663696,101.938980 350.440216,106.030037 350.575043,108.606834 
	C350.694794,110.894630 350.488281,113.304855 349.832031,115.482063 
	C349.518402,116.522491 347.828644,117.148102 346.762177,117.961594 
	C346.014832,116.821449 344.792236,115.744827 344.629395,114.526558 
	C344.372742,112.606064 344.828247,110.590378 345.016266,108.190903 
z"/>
<path fill="#F6F7F7" opacity="1.000000" stroke="none" 
	d="
M250.412140,80.607315 
	C252.058990,81.438690 254.351395,82.334282 254.423813,83.383171 
	C254.515305,84.708069 253.109253,86.657318 251.807678,87.469696 
	C245.235016,91.572006 244.350861,93.565834 245.096024,101.348808 
	C245.261856,103.080902 243.975143,106.092918 242.637222,106.594284 
	C239.713257,107.689987 238.842880,104.927895 238.304184,102.555496 
	C236.004547,92.428101 240.029678,84.975243 250.412140,80.607315 
z"/>
<path fill="#F6F7F7" opacity="1.000000" stroke="none" 
	d="
M278.248352,111.521133 
	C275.938812,112.462379 273.727386,113.065071 272.378906,113.432587 
	C270.769562,115.603508 269.385040,117.471130 268.000549,119.338753 
	C266.761902,117.075455 265.523254,114.812157 263.893921,111.834953 
	C262.766541,110.762688 260.852966,108.942657 258.939392,107.122620 
	C260.673767,106.182632 262.408112,105.242638 264.892761,103.895988 
	C264.891266,103.923073 264.666321,102.665565 265.095337,101.698044 
	C265.552338,100.667381 266.645081,99.197212 267.429352,99.215889 
	C268.406494,99.239166 270.218781,100.647507 270.171082,101.356956 
	C269.853058,106.087715 272.305664,107.707336 276.526642,108.179146 
	C277.236298,108.258461 277.744965,110.135941 278.248352,111.521133 
z"/>
<path fill="#EFEFEF" opacity="1.000000" stroke="none" 
	d="
M130.054947,357.946655 
	C129.307678,356.295929 128.860489,354.830750 128.134872,352.453400 
	C139.319168,358.116364 148.180984,366.476013 147.356995,371.233734 
	C141.442886,366.676392 135.898956,362.404297 130.054947,357.946655 
z"/>
<path fill="#0049AB" opacity="1.000000" stroke="none" 
	d="
M117.241928,349.175598 
	C114.970703,348.491882 112.418747,348.000580 111.230385,346.458496 
	C110.445984,345.440582 111.209412,342.665497 112.103577,341.169556 
	C112.517044,340.477783 115.522720,340.331207 116.250023,341.051453 
	C117.549782,342.338562 118.215935,344.414642 118.724602,346.276306 
	C118.921371,346.996460 117.969261,348.030518 117.241928,349.175598 
z"/>
<path fill="#E1E1E1" opacity="1.000000" stroke="none" 
	d="
M285.328613,330.281738 
	C285.343353,330.012085 285.487457,329.863892 285.631592,329.715698 
	C285.573761,329.944885 285.515900,330.174072 285.328613,330.281738 
z"/>
</svg>